<?xml version="1.0" encoding="utf-8"?>
<!-- Generator: Adobe Illustrator 18.0.0, SVG Export Plug-In . SVG Version: 6.00 Build 0)  -->
<!DOCTYPE svg PUBLIC "-//W3C//DTD SVG 1.1//EN" "http://www.w3.org/Graphics/SVG/1.1/DTD/svg11.dtd">
<svg version="1.1" id="Layer_1" xmlns="http://www.w3.org/2000/svg" xmlns:xlink="http://www.w3.org/1999/xlink" x="0px" y="0px"
	 viewBox="0 0 1077.2 1133.9" enable-background="new 0 0 1077.2 1133.9" xml:space="preserve">
<rect x="0" y="0" display="none" fill="#FFFFFF" width="1077.2" height="1133.9"/>
<g>
	<path fill="#A8A8A7" d="M171.8,568.6c0,3.7-3,6.8-6.8,6.8c-3.7,0-6.7-3-6.7-6.8c0-3.7,3-6.7,6.7-6.7
		C168.8,561.8,171.8,564.8,171.8,568.6z"/>
	<path fill="#A8A8A7" d="M189.7,568.8c0,3.7-3,6.8-6.8,6.8c-3.7,0-6.7-3-6.7-6.8c0-3.7,3-6.7,6.7-6.7
		C186.7,562,189.7,565.1,189.7,568.8z"/>
	<path fill="#A8A8A7" d="M207.5,568.8c0,3.7-3,6.8-6.8,6.8c-3.7,0-6.8-3-6.8-6.8c0-3.7,3-6.8,6.8-6.8
		C204.5,562,207.5,565.1,207.5,568.8z"/>
	<path fill="#A8A8A7" d="M225.4,568.6c0,3.7-3,6.8-6.8,6.8c-3.7,0-6.7-3-6.7-6.8c0-3.7,3-6.8,6.7-6.8
		C222.3,561.9,225.4,564.9,225.4,568.6z"/>
	<path fill="#A8A8A7" d="M243.2,568.6c0,3.7-3,6.8-6.8,6.8c-3.7,0-6.7-3-6.7-6.8c0-3.7,3-6.8,6.7-6.8
		C240.2,561.9,243.2,564.9,243.2,568.6z"/>
	<path fill="#A8A8A7" d="M421.7,568.7c0,3.7-3,6.7-6.8,6.7c-3.7,0-6.8-3-6.8-6.7c0-3.7,3-6.8,6.8-6.8
		C418.7,562,421.7,565,421.7,568.7z"/>
	<path fill="#A8A8A7" d="M439.5,568.6c0,3.7-3,6.8-6.8,6.8c-3.7,0-6.8-3-6.8-6.8c0-3.7,3-6.7,6.8-6.7
		C436.5,561.8,439.5,564.8,439.5,568.6z"/>
	<path fill="#A8A8A7" d="M457.4,568.6c0,3.7-3,6.8-6.8,6.8c-3.7,0-6.8-3-6.8-6.8c0-3.7,3-6.8,6.8-6.8
		C454.3,561.8,457.4,564.8,457.4,568.6z"/>
	<path fill="#A8A8A7" d="M475.2,568.8c0,3.7-3,6.7-6.8,6.7c-3.7,0-6.8-3-6.8-6.7c0-3.7,3-6.8,6.8-6.8
		C472.2,562,475.2,565,475.2,568.8z"/>
	<path fill="#A8A8A7" d="M493,568.8c0,3.7-3,6.8-6.8,6.8c-3.7,0-6.8-3-6.8-6.8c0-3.7,3-6.8,6.8-6.8C490,562,493,565,493,568.8z"/>
	<path fill="#A8A8A7" d="M510.9,568.6c0,3.7-3,6.8-6.8,6.8c-3.7,0-6.8-3-6.8-6.8c0-3.7,3-6.8,6.8-6.8
		C507.9,561.8,510.9,564.9,510.9,568.6z"/>
	<path fill="#A8A8A7" d="M528.7,568.6c0,3.7-3,6.8-6.8,6.8c-3.7,0-6.7-3-6.7-6.8c0-3.7,3-6.8,6.7-6.8
		C525.7,561.8,528.7,564.9,528.7,568.6z"/>
	<path fill="#A8A8A7" d="M546.6,568.6c0,3.7-3,6.8-6.8,6.8c-3.7,0-6.8-3-6.8-6.8c0-3.7,3-6.7,6.8-6.7
		C543.6,561.9,546.6,564.9,546.6,568.6z"/>
	<path fill="#A8A8A7" d="M564.4,568.7c0,3.7-3,6.8-6.8,6.8c-3.7,0-6.8-3-6.8-6.8c0-3.7,3-6.7,6.8-6.7
		C561.4,561.9,564.4,564.9,564.4,568.7z"/>
	<path fill="#A8A8A7" d="M582.3,568.5c0,3.7-3,6.8-6.8,6.8c-3.7,0-6.8-3-6.8-6.8c0-3.7,3-6.7,6.8-6.7
		C579.3,561.8,582.3,564.8,582.3,568.5z"/>
	<path fill="#A8A8A7" d="M600.1,568.5c0,3.7-3,6.8-6.8,6.8c-3.7,0-6.7-3-6.7-6.8c0-3.7,3-6.7,6.7-6.7
		C597.1,561.8,600.1,564.8,600.1,568.5z"/>
	<path fill="#A8A8A7" d="M618,569c0,3.7-3,6.8-6.7,6.8c-3.7,0-6.8-3-6.8-6.8c0-3.7,3-6.8,6.8-6.8C614.9,562.2,618,565.2,618,569z"/>
	<path fill="#A8A8A7" d="M635.8,569c0,3.7-3,6.8-6.7,6.8c-3.7,0-6.8-3-6.8-6.8c0-3.7,3-6.7,6.8-6.7
		C632.8,562.2,635.8,565.2,635.8,569z"/>
	<path fill="#A8A8A7" d="M653.7,568.8c0,3.7-3,6.8-6.8,6.8c-3.7,0-6.8-3-6.8-6.8c0-3.7,3-6.8,6.8-6.8
		C650.6,562.1,653.7,565.1,653.7,568.8z"/>
	<path fill="#A8A8A7" d="M850,568.9c0,3.7-3,6.8-6.8,6.8c-3.7,0-6.8-3-6.8-6.8c0-3.7,3-6.7,6.8-6.7C846.9,562.1,850,565.2,850,568.9
		z"/>
	<path fill="#A8A8A7" d="M171.8,587.8c0,3.7-3,6.8-6.8,6.8c-3.7,0-6.7-3-6.7-6.8c0-3.7,3-6.7,6.7-6.7
		C168.8,581.1,171.8,584.1,171.8,587.8z"/>
	<path fill="#A8A8A7" d="M189.7,588c0,3.7-3,6.8-6.8,6.8c-3.7,0-6.7-3-6.7-6.8c0-3.7,3-6.7,6.7-6.7
		C186.7,581.3,189.7,584.3,189.7,588z"/>
	<path fill="#A8A8A7" d="M207.5,588c0,3.7-3,6.7-6.8,6.7c-3.7,0-6.8-3-6.8-6.7c0-3.7,3-6.8,6.8-6.8
		C204.5,581.3,207.5,584.3,207.5,588z"/>
	<path fill="#A8A8A7" d="M225.4,587.8c0,3.7-3,6.8-6.8,6.8c-3.7,0-6.7-3-6.7-6.8s3-6.7,6.7-6.7C222.3,581.1,225.4,584.1,225.4,587.8
		z"/>
	<path fill="#A8A8A7" d="M243.2,587.8c0,3.7-3,6.8-6.8,6.8c-3.7,0-6.7-3-6.7-6.8c0-3.7,3-6.8,6.7-6.8
		C240.2,581.1,243.2,584.1,243.2,587.8z"/>
	<path fill="#A8A8A7" d="M261.1,587.9c0,3.7-3,6.7-6.8,6.7c-3.7,0-6.7-3-6.7-6.7c0-3.7,3-6.8,6.7-6.8
		C258,581.2,261.1,584.2,261.1,587.9z"/>
	<path fill="#A8A8A7" d="M457.4,587.8c0,3.7-3,6.8-6.8,6.8c-3.7,0-6.8-3-6.8-6.8c0-3.7,3-6.8,6.8-6.8
		C454.3,581,457.4,584.1,457.4,587.8z"/>
	<path fill="#A8A8A7" d="M510.9,587.8c0,3.7-3,6.8-6.8,6.8c-3.7,0-6.8-3-6.8-6.8c0-3.7,3-6.8,6.8-6.8
		C507.9,581.1,510.9,584.1,510.9,587.8z"/>
	<path fill="#A8A8A7" d="M528.7,587.8c0,3.7-3,6.8-6.8,6.8c-3.7,0-6.7-3-6.7-6.8c0-3.7,3-6.8,6.7-6.8
		C525.7,581.1,528.7,584.1,528.7,587.8z"/>
	<path fill="#A8A8A7" d="M546.6,587.9c0,3.7-3,6.8-6.8,6.8c-3.7,0-6.8-3-6.8-6.8c0-3.7,3-6.8,6.8-6.8
		C543.6,581.1,546.6,584.2,546.6,587.9z"/>
	<path fill="#A8A8A7" d="M564.4,587.9c0,3.7-3,6.7-6.8,6.7c-3.7,0-6.8-3-6.8-6.7c0-3.7,3-6.7,6.8-6.7
		C561.4,581.1,564.4,584.2,564.4,587.9z"/>
	<path fill="#A8A8A7" d="M582.3,587.8c0,3.7-3,6.8-6.8,6.8c-3.7,0-6.8-3-6.8-6.8c0-3.7,3-6.8,6.8-6.8
		C579.3,581,582.3,584,582.3,587.8z"/>
	<path fill="#A8A8A7" d="M600.1,587.8c0,3.7-3,6.7-6.8,6.7c-3.7,0-6.7-3-6.7-6.7c0-3.7,3-6.8,6.7-6.8
		C597.1,581,600.1,584,600.1,587.8z"/>
	<path fill="#A8A8A7" d="M618,588.2c0,3.7-3,6.8-6.7,6.8c-3.7,0-6.8-3-6.8-6.8c0-3.7,3-6.8,6.8-6.8C614.9,581.4,618,584.5,618,588.2
		z"/>
	<path fill="#A8A8A7" d="M635.8,588.2c0,3.7-3,6.8-6.7,6.8c-3.7,0-6.8-3-6.8-6.8c0-3.7,3-6.8,6.8-6.8
		C632.8,581.4,635.8,584.5,635.8,588.2z"/>
	<path fill="#A8A8A7" d="M653.7,588.1c0,3.7-3,6.8-6.8,6.8c-3.7,0-6.8-3-6.8-6.8c0-3.7,3-6.8,6.8-6.8
		C650.6,581.3,653.7,584.3,653.7,588.1z"/>
	<path fill="#A8A8A7" d="M850,588.1c0,3.7-3,6.8-6.8,6.8c-3.7,0-6.8-3-6.8-6.8c0-3.7,3-6.7,6.8-6.7C846.9,581.4,850,584.4,850,588.1
		z"/>
	<path fill="#A8A8A7" d="M867.8,587.9c0,3.7-3,6.8-6.8,6.8c-3.7,0-6.8-3-6.8-6.8c0-3.7,3-6.7,6.8-6.7
		C864.8,581.2,867.8,584.2,867.8,587.9z"/>
	<path fill="#A8A8A7" d="M903.5,588.2c0,3.7-3,6.8-6.7,6.8c-3.7,0-6.8-3-6.8-6.8c0-3.7,3-6.8,6.8-6.8
		C900.5,581.4,903.5,584.4,903.5,588.2z"/>
	<path fill="#A8A8A7" d="M171.8,607c0,3.7-3,6.8-6.8,6.8c-3.7,0-6.7-3-6.7-6.8c0-3.7,3-6.8,6.7-6.8
		C168.8,600.3,171.8,603.3,171.8,607z"/>
	<path fill="#A8A8A7" d="M189.7,607.3c0,3.7-3,6.8-6.8,6.8c-3.7,0-6.7-3-6.7-6.8c0-3.7,3-6.8,6.7-6.8
		C186.7,600.5,189.7,603.5,189.7,607.3z"/>
	<path fill="#A8A8A7" d="M207.5,607.3c0,3.7-3,6.8-6.8,6.8c-3.7,0-6.8-3-6.8-6.8c0-3.7,3-6.7,6.8-6.7
		C204.5,600.5,207.5,603.5,207.5,607.3z"/>
	<path fill="#A8A8A7" d="M225.4,607.1c0,3.7-3,6.8-6.8,6.8c-3.7,0-6.7-3-6.7-6.8c0-3.7,3-6.8,6.7-6.8
		C222.3,600.3,225.4,603.3,225.4,607.1z"/>
	<path fill="#A8A8A7" d="M243.2,607.1c0,3.7-3,6.8-6.8,6.8c-3.7,0-6.7-3-6.7-6.8c0-3.7,3-6.8,6.7-6.8
		C240.2,600.3,243.2,603.3,243.2,607.1z"/>
	<path fill="#A8A8A7" d="M261.1,607.1c0,3.7-3,6.8-6.8,6.8c-3.7,0-6.7-3-6.7-6.8c0-3.7,3-6.8,6.7-6.8
		C258,600.4,261.1,603.4,261.1,607.1z"/>
	<path fill="#A8A8A7" d="M510.9,607c0,3.7-3,6.8-6.8,6.8c-3.7,0-6.8-3-6.8-6.8c0-3.7,3-6.7,6.8-6.7
		C507.9,600.3,510.9,603.3,510.9,607z"/>
	<path fill="#A8A8A7" d="M528.7,607.1c0,3.7-3,6.8-6.8,6.8c-3.7,0-6.7-3-6.7-6.8c0-3.7,3-6.7,6.7-6.7
		C525.7,600.3,528.7,603.3,528.7,607.1z"/>
	<path fill="#A8A8A7" d="M546.6,607.1c0,3.7-3,6.8-6.8,6.8c-3.7,0-6.8-3-6.8-6.8c0-3.7,3-6.7,6.8-6.7
		C543.6,600.4,546.6,603.4,546.6,607.1z"/>
	<path fill="#A8A8A7" d="M564.4,607.1c0,3.7-3,6.8-6.8,6.8c-3.7,0-6.8-3-6.8-6.8c0-3.7,3-6.7,6.8-6.7
		C561.4,600.4,564.4,603.4,564.4,607.1z"/>
	<path fill="#A8A8A7" d="M582.3,607c0,3.7-3,6.8-6.8,6.8c-3.7,0-6.8-3-6.8-6.8s3-6.8,6.8-6.8C579.3,600.2,582.3,603.3,582.3,607z"/>
	<path fill="#A8A8A7" d="M600.1,607c0,3.7-3,6.8-6.8,6.8c-3.7,0-6.7-3-6.7-6.8c0-3.7,3-6.8,6.7-6.8
		C597.1,600.2,600.1,603.3,600.1,607z"/>
	<path fill="#A8A8A7" d="M618,607.4c0,3.7-3,6.8-6.7,6.8c-3.7,0-6.8-3-6.8-6.8c0-3.7,3-6.7,6.8-6.7C614.9,600.7,618,603.7,618,607.4
		z"/>
	<path fill="#A8A8A7" d="M635.8,607.4c0,3.7-3,6.8-6.7,6.8c-3.7,0-6.8-3-6.8-6.8c0-3.7,3-6.8,6.8-6.8
		C632.8,600.7,635.8,603.7,635.8,607.4z"/>
	<path fill="#A8A8A7" d="M867.8,607.1c0,3.7-3,6.7-6.8,6.7c-3.7,0-6.8-3-6.8-6.7c0-3.7,3-6.8,6.8-6.8
		C864.8,600.4,867.8,603.4,867.8,607.1z"/>
	<path fill="#A8A8A7" d="M903.5,607.4c0,3.7-3,6.8-6.7,6.8c-3.7,0-6.8-3-6.8-6.8c0-3.7,3-6.7,6.8-6.7
		C900.5,600.7,903.5,603.7,903.5,607.4z"/>
	<path fill="#A8A8A7" d="M974.9,607.3c0,3.7-3,6.8-6.8,6.8c-3.7,0-6.8-3-6.8-6.8c0-3.7,3-6.7,6.8-6.7
		C971.9,600.6,974.9,603.6,974.9,607.3z"/>
	<path fill="#A8A8A7" d="M171.8,626.3c0,3.7-3,6.8-6.8,6.8c-3.7,0-6.8-3-6.8-6.8c0-3.7,3-6.7,6.8-6.7
		C168.8,619.5,171.8,622.5,171.8,626.3z"/>
	<path fill="#A8A8A7" d="M189.7,626.5c0,3.7-3,6.8-6.8,6.8c-3.7,0-6.7-3-6.7-6.8c0-3.7,3-6.8,6.7-6.8
		C186.7,619.7,189.7,622.8,189.7,626.5z"/>
	<path fill="#A8A8A7" d="M207.5,626.5c0,3.7-3,6.8-6.7,6.8c-3.7,0-6.8-3-6.8-6.8c0-3.7,3-6.8,6.8-6.8
		C204.5,619.7,207.5,622.8,207.5,626.5z"/>
	<path fill="#A8A8A7" d="M225.4,626.3c0,3.7-3,6.8-6.8,6.8s-6.8-3-6.8-6.8c0-3.7,3-6.7,6.8-6.7S225.4,622.6,225.4,626.3z"/>
	<path fill="#A8A8A7" d="M243.2,626.3c0,3.7-3,6.8-6.7,6.8c-3.7,0-6.8-3-6.8-6.8c0-3.7,3-6.7,6.8-6.7
		C240.2,619.5,243.2,622.6,243.2,626.3z"/>
	<path fill="#A8A8A7" d="M261.1,626.4c0,3.7-3,6.8-6.8,6.8c-3.7,0-6.8-3-6.8-6.8c0-3.7,3-6.8,6.8-6.8
		C258,619.6,261.1,622.7,261.1,626.4z"/>
	<path fill="#A8A8A7" d="M278.9,626.4c0,3.7-3,6.8-6.7,6.8c-3.7,0-6.8-3-6.8-6.8c0-3.7,3-6.7,6.8-6.7
		C275.9,619.6,278.9,622.7,278.9,626.4z"/>
	<path fill="#A8A8A7" d="M296.8,626.2c0,3.7-3,6.8-6.7,6.8c-3.7,0-6.8-3-6.8-6.8c0-3.7,3-6.7,6.8-6.7
		C293.7,619.5,296.8,622.5,296.8,626.2z"/>
	<path fill="#A8A8A7" d="M314.6,626.2c0,3.7-3,6.8-6.7,6.8c-3.7,0-6.8-3-6.8-6.8c0-3.7,3-6.8,6.8-6.8
		C311.6,619.5,314.6,622.5,314.6,626.2z"/>
	<path fill="#A8A8A7" d="M528.7,626.3c0,3.7-3,6.8-6.8,6.8c-3.7,0-6.8-3-6.8-6.8c0-3.7,3-6.7,6.8-6.7
		C525.7,619.5,528.7,622.6,528.7,626.3z"/>
	<path fill="#A8A8A7" d="M546.6,626.3c0,3.7-3,6.7-6.8,6.7s-6.8-3-6.8-6.7c0-3.7,3-6.8,6.8-6.8S546.6,622.6,546.6,626.3z"/>
	<path fill="#A8A8A7" d="M564.4,626.4c0,3.7-3,6.8-6.8,6.8c-3.7,0-6.8-3-6.8-6.8c0-3.7,3-6.8,6.8-6.8
		C561.4,619.6,564.4,622.6,564.4,626.4z"/>
	<path fill="#A8A8A7" d="M582.3,626.2c0,3.7-3,6.8-6.8,6.8c-3.7,0-6.8-3-6.8-6.8c0-3.7,3-6.7,6.8-6.7
		C579.3,619.5,582.3,622.5,582.3,626.2z"/>
	<path fill="#A8A8A7" d="M600.1,626.2c0,3.7-3,6.8-6.8,6.8c-3.7,0-6.7-3-6.7-6.8c0-3.7,3-6.7,6.7-6.7
		C597.1,619.5,600.1,622.5,600.1,626.2z"/>
	<path fill="#A8A8A7" d="M618,626.6c0,3.7-3,6.8-6.8,6.8c-3.7,0-6.8-3-6.8-6.8c0-3.7,3-6.7,6.8-6.7C614.9,619.9,618,622.9,618,626.6
		z"/>
	<path fill="#A8A8A7" d="M867.8,626.4c0,3.7-3,6.8-6.8,6.8c-3.7,0-6.8-3-6.8-6.8c0-3.7,3-6.7,6.8-6.7
		C864.8,619.6,867.8,622.6,867.8,626.4z"/>
	<path fill="#A8A8A7" d="M903.5,626.6c0,3.7-3,6.7-6.8,6.7c-3.7,0-6.8-3-6.8-6.7c0-3.7,3-6.8,6.8-6.8
		C900.5,619.9,903.5,622.9,903.5,626.6z"/>
	<path fill="#A8A8A7" d="M992.7,626.6c0,3.7-3,6.8-6.7,6.8c-3.7,0-6.8-3-6.8-6.8c0-3.7,3-6.7,6.8-6.7
		C989.7,619.8,992.7,622.9,992.7,626.6z"/>
	<path fill="#A8A8A7" d="M1010.6,626.4c0,3.7-3,6.8-6.8,6.8c-3.7,0-6.8-3-6.8-6.8c0-3.7,3-6.7,6.8-6.7
		C1007.5,619.6,1010.6,622.7,1010.6,626.4z"/>
	<path fill="#A8A8A7" d="M171.8,645.5c0,3.7-3,6.7-6.8,6.7c-3.7,0-6.7-3-6.7-6.7c0-3.7,3-6.7,6.7-6.7
		C168.8,638.8,171.8,641.8,171.8,645.5z"/>
	<path fill="#A8A8A7" d="M189.7,645.7c0,3.7-3,6.7-6.8,6.7c-3.7,0-6.7-3-6.7-6.7c0-3.7,3-6.8,6.7-6.8
		C186.7,639,189.7,642,189.7,645.7z"/>
	<path fill="#A8A8A7" d="M207.5,645.7c0,3.7-3,6.8-6.8,6.8c-3.7,0-6.8-3-6.8-6.8c0-3.7,3-6.7,6.8-6.7
		C204.5,639,207.5,642,207.5,645.7z"/>
	<path fill="#A8A8A7" d="M225.4,645.5c0,3.7-3,6.7-6.8,6.7c-3.7,0-6.7-3-6.7-6.7c0-3.7,3-6.8,6.7-6.8
		C222.3,638.8,225.4,641.8,225.4,645.5z"/>
	<path fill="#A8A8A7" d="M243.2,645.5c0,3.7-3,6.7-6.8,6.7c-3.7,0-6.7-3-6.7-6.7c0-3.7,3-6.8,6.7-6.8
		C240.2,638.8,243.2,641.8,243.2,645.5z"/>
	<path fill="#A8A8A7" d="M261.1,645.6c0,3.7-3,6.8-6.8,6.8c-3.7,0-6.7-3-6.7-6.8c0-3.7,3-6.8,6.7-6.8
		C258,638.9,261.1,641.9,261.1,645.6z"/>
	<path fill="#A8A8A7" d="M278.9,645.6c0,3.7-3,6.8-6.8,6.8c-3.7,0-6.7-3-6.7-6.8c0-3.7,3-6.7,6.7-6.7
		C275.9,638.9,278.9,641.9,278.9,645.6z"/>
	<path fill="#A8A8A7" d="M296.8,645.5c0,3.7-3,6.8-6.8,6.8c-3.7,0-6.8-3-6.8-6.8c0-3.7,3-6.8,6.8-6.8
		C293.7,638.7,296.8,641.7,296.8,645.5z"/>
	<path fill="#A8A8A7" d="M314.6,645.5c0,3.7-3,6.8-6.8,6.8c-3.7,0-6.8-3-6.8-6.8c0-3.7,3-6.8,6.8-6.8
		C311.6,638.7,314.6,641.7,314.6,645.5z"/>
	<path fill="#A8A8A7" d="M332.4,645.7c0,3.7-3,6.8-6.8,6.8c-3.7,0-6.8-3-6.8-6.8c0-3.7,3-6.8,6.8-6.8
		C329.4,639,332.4,642,332.4,645.7z"/>
	<path fill="#A8A8A7" d="M528.7,645.5c0,3.7-3,6.8-6.8,6.8c-3.7,0-6.7-3-6.7-6.8c0-3.7,3-6.8,6.7-6.8
		C525.7,638.8,528.7,641.8,528.7,645.5z"/>
	<path fill="#A8A8A7" d="M546.6,645.6c0,3.7-3,6.8-6.8,6.8c-3.7,0-6.8-3-6.8-6.8c0-3.7,3-6.8,6.8-6.8
		C543.6,638.8,546.6,641.9,546.6,645.6z"/>
	<path fill="#A8A8A7" d="M564.4,645.6c0,3.7-3,6.8-6.8,6.8c-3.7,0-6.8-3-6.8-6.8c0-3.7,3-6.7,6.8-6.7
		C561.4,638.8,564.4,641.9,564.4,645.6z"/>
	<path fill="#A8A8A7" d="M582.3,645.5c0,3.7-3,6.8-6.8,6.8c-3.7,0-6.8-3-6.8-6.8c0-3.7,3-6.7,6.8-6.7
		C579.3,638.7,582.3,641.7,582.3,645.5z"/>
	<path fill="#A8A8A7" d="M600.1,645.5c0,3.7-3,6.8-6.8,6.8c-3.7,0-6.7-3-6.7-6.8c0-3.7,3-6.7,6.7-6.7
		C597.1,638.7,600.1,641.7,600.1,645.5z"/>
	<path fill="#A8A8A7" d="M618,645.9c0,3.7-3,6.8-6.7,6.8c-3.7,0-6.8-3-6.8-6.8s3-6.7,6.8-6.7C614.9,639.1,618,642.1,618,645.9z"/>
	<path fill="#A8A8A7" d="M1010.5,645.6c0,3.7-3,6.8-6.7,6.8c-3.7,0-6.8-3-6.8-6.8c0-3.7,3-6.7,6.8-6.7
		C1007.5,638.9,1010.5,641.9,1010.5,645.6z"/>
	<path fill="#A8A8A7" d="M1028.4,645.6c0,3.7-3,6.8-6.8,6.8c-3.7,0-6.8-3-6.8-6.8c0-3.7,3-6.8,6.8-6.8
		C1025.4,638.9,1028.4,641.9,1028.4,645.6z"/>
	<path fill="#A8A8A7" d="M171.8,664.7c0,3.7-3,6.7-6.8,6.7c-3.7,0-6.8-3-6.8-6.7c0-3.7,3-6.8,6.8-6.8
		C168.8,658,171.8,661,171.8,664.7z"/>
	<path fill="#A8A8A7" d="M189.7,665c0,3.7-3,6.7-6.8,6.7c-3.7,0-6.7-3-6.7-6.7c0-3.7,3-6.8,6.7-6.8
		C186.7,658.2,189.7,661.2,189.7,665z"/>
	<path fill="#A8A8A7" d="M207.5,665c0,3.7-3,6.8-6.7,6.8c-3.7,0-6.8-3-6.8-6.8c0-3.7,3-6.7,6.8-6.7
		C204.5,658.2,207.5,661.2,207.5,665z"/>
	<path fill="#A8A8A7" d="M225.4,664.8c0,3.7-3,6.8-6.8,6.8s-6.8-3-6.8-6.8c0-3.7,3-6.8,6.8-6.8S225.4,661,225.4,664.8z"/>
	<path fill="#A8A8A7" d="M243.2,664.8c0,3.7-3,6.8-6.7,6.8c-3.7,0-6.8-3-6.8-6.8c0-3.7,3-6.8,6.8-6.8
		C240.2,658,243.2,661,243.2,664.8z"/>
	<path fill="#A8A8A7" d="M261.1,664.8c0,3.7-3,6.8-6.8,6.8c-3.7,0-6.8-3-6.8-6.8c0-3.7,3-6.8,6.8-6.8
		C258,658.1,261.1,661.1,261.1,664.8z"/>
	<path fill="#A8A8A7" d="M278.9,664.8c0,3.7-3,6.8-6.7,6.8c-3.7,0-6.8-3-6.8-6.8c0-3.7,3-6.7,6.8-6.7
		C275.9,658.1,278.9,661.1,278.9,664.8z"/>
	<path fill="#A8A8A7" d="M296.8,664.7c0,3.7-3,6.8-6.7,6.8c-3.7,0-6.8-3-6.8-6.8c0-3.7,3-6.8,6.8-6.8
		C293.7,657.9,296.8,661,296.8,664.7z"/>
	<path fill="#A8A8A7" d="M314.6,664.7c0,3.7-3,6.8-6.7,6.8c-3.7,0-6.8-3-6.8-6.8c0-3.7,3-6.8,6.8-6.8
		C311.6,658,314.6,661,314.6,664.7z"/>
	<path fill="#A8A8A7" d="M528.7,664.7c0,3.7-3,6.8-6.8,6.8c-3.7,0-6.8-3-6.8-6.8c0-3.7,3-6.7,6.8-6.7
		C525.7,658,528.7,661,528.7,664.7z"/>
	<path fill="#A8A8A7" d="M546.6,664.8c0,3.7-3,6.8-6.8,6.8s-6.8-3-6.8-6.8c0-3.7,3-6.8,6.8-6.8S546.6,661.1,546.6,664.8z"/>
	<path fill="#A8A8A7" d="M564.4,664.8c0,3.7-3,6.8-6.8,6.8c-3.7,0-6.8-3-6.8-6.8c0-3.7,3-6.8,6.8-6.8
		C561.4,658.1,564.4,661.1,564.4,664.8z"/>
	<path fill="#A8A8A7" d="M582.3,664.7c0,3.7-3,6.8-6.8,6.8c-3.7,0-6.8-3-6.8-6.8c0-3.7,3-6.8,6.8-6.8
		C579.3,657.9,582.3,661,582.3,664.7z"/>
	<path fill="#A8A8A7" d="M600.1,664.7c0,3.7-3,6.8-6.8,6.8c-3.7,0-6.7-3-6.7-6.8c0-3.7,3-6.7,6.7-6.7
		C597.1,657.9,600.1,661,600.1,664.7z"/>
	<path fill="#A8A8A7" d="M618,665.1c0,3.7-3,6.8-6.8,6.8c-3.7,0-6.8-3-6.8-6.8c0-3.7,3-6.7,6.8-6.7C614.9,658.4,618,661.4,618,665.1
		z"/>
	<path fill="#A8A8A7" d="M653.7,665c0,3.7-3,6.8-6.8,6.8c-3.7,0-6.8-3-6.8-6.8c0-3.7,3-6.7,6.8-6.7
		C650.6,658.2,653.7,661.3,653.7,665z"/>
	<path fill="#A8A8A7" d="M974.9,665c0,3.7-3,6.8-6.8,6.8c-3.7,0-6.8-3-6.8-6.8c0-3.7,3-6.7,6.8-6.7
		C971.9,658.3,974.9,661.3,974.9,665z"/>
	<path fill="#A8A8A7" d="M189.7,684.2c0,3.7-3,6.7-6.8,6.7c-3.7,0-6.7-3-6.7-6.7c0-3.7,3-6.7,6.7-6.7
		C186.7,677.4,189.7,680.5,189.7,684.2z"/>
	<path fill="#A8A8A7" d="M207.5,684.2c0,3.7-3,6.8-6.7,6.8c-3.7,0-6.8-3-6.8-6.8c0-3.7,3-6.8,6.8-6.8
		C204.5,677.4,207.5,680.5,207.5,684.2z"/>
	<path fill="#A8A8A7" d="M225.4,684c0,3.7-3,6.8-6.8,6.8s-6.8-3-6.8-6.8c0-3.7,3-6.8,6.8-6.8S225.4,680.3,225.4,684z"/>
	<path fill="#A8A8A7" d="M243.2,684c0,3.7-3,6.8-6.7,6.8c-3.7,0-6.8-3-6.8-6.8c0-3.7,3-6.7,6.8-6.7
		C240.2,677.2,243.2,680.3,243.2,684z"/>
	<path fill="#A8A8A7" d="M261.1,684.1c0,3.7-3,6.7-6.8,6.7c-3.7,0-6.8-3-6.8-6.7c0-3.7,3-6.8,6.8-6.8
		C258,677.3,261.1,680.3,261.1,684.1z"/>
	<path fill="#A8A8A7" d="M278.9,684.1c0,3.7-3,6.8-6.7,6.8c-3.7,0-6.8-3-6.8-6.8c0-3.7,3-6.8,6.8-6.8
		C275.9,677.3,278.9,680.3,278.9,684.1z"/>
	<path fill="#A8A8A7" d="M296.8,683.9c0,3.7-3,6.8-6.7,6.8c-3.7,0-6.8-3-6.8-6.8c0-3.7,3-6.7,6.8-6.7
		C293.7,677.2,296.8,680.2,296.8,683.9z"/>
	<path fill="#A8A8A7" d="M314.6,683.9c0,3.7-3,6.8-6.7,6.8c-3.7,0-6.8-3-6.8-6.8c0-3.7,3-6.7,6.8-6.7
		C311.6,677.2,314.6,680.2,314.6,683.9z"/>
	<path fill="#A8A8A7" d="M528.7,684c0,3.7-3,6.8-6.8,6.8c-3.7,0-6.8-3-6.8-6.8c0-3.7,3-6.7,6.8-6.7
		C525.7,677.2,528.7,680.2,528.7,684z"/>
	<path fill="#A8A8A7" d="M546.6,684c0,3.7-3,6.8-6.8,6.8s-6.8-3-6.8-6.8c0-3.7,3-6.7,6.8-6.7S546.6,680.3,546.6,684z"/>
	<path fill="#A8A8A7" d="M564.4,684c0,3.7-3,6.8-6.8,6.8c-3.7,0-6.8-3-6.8-6.8c0-3.7,3-6.7,6.8-6.7
		C561.4,677.3,564.4,680.3,564.4,684z"/>
	<path fill="#A8A8A7" d="M582.3,683.9c0,3.7-3,6.8-6.8,6.8c-3.7,0-6.8-3-6.8-6.8c0-3.7,3-6.8,6.8-6.8
		C579.3,677.2,582.3,680.2,582.3,683.9z"/>
	<path fill="#A8A8A7" d="M600.1,683.9c0,3.7-3,6.8-6.8,6.8c-3.7,0-6.7-3-6.7-6.8c0-3.7,3-6.7,6.7-6.7
		C597.1,677.2,600.1,680.2,600.1,683.9z"/>
	<path fill="#A8A8A7" d="M618,684.3c0,3.7-3,6.8-6.8,6.8c-3.7,0-6.8-3-6.8-6.8c0-3.7,3-6.7,6.8-6.7C614.9,677.6,618,680.6,618,684.3
		z"/>
	<path fill="#A8A8A7" d="M653.7,684.2c0,3.7-3,6.8-6.8,6.8c-3.7,0-6.8-3-6.8-6.8c0-3.7,3-6.7,6.8-6.7
		C650.6,677.5,653.7,680.5,653.7,684.2z"/>
	<path fill="#A8A8A7" d="M939.2,684.2c0,3.7-3,6.8-6.8,6.8c-3.7,0-6.8-3-6.8-6.8c0-3.7,3-6.8,6.8-6.8
		C936.2,677.4,939.2,680.5,939.2,684.2z"/>
	<path fill="#A8A8A7" d="M957,684.2c0,3.7-3,6.8-6.8,6.8c-3.7,0-6.7-3-6.7-6.8c0-3.7,3-6.8,6.7-6.8C954,677.4,957,680.5,957,684.2z"
		/>
	<path fill="#A8A8A7" d="M974.9,684.3c0,3.7-3,6.8-6.8,6.8c-3.7,0-6.8-3-6.8-6.8c0-3.7,3-6.7,6.8-6.7
		C971.9,677.5,974.9,680.5,974.9,684.3z"/>
	<path fill="#A8A8A7" d="M992.7,684.3c0,3.7-3,6.7-6.7,6.7c-3.7,0-6.8-3-6.8-6.7s3-6.7,6.8-6.7C989.7,677.5,992.7,680.6,992.7,684.3
		z"/>
	<path fill="#A8A8A7" d="M207.5,703.4c0,3.7-3,6.8-6.7,6.8c-3.7,0-6.8-3-6.8-6.8c0-3.7,3-6.7,6.8-6.7
		C204.5,696.7,207.5,699.7,207.5,703.4z"/>
	<path fill="#A8A8A7" d="M225.4,703.2c0,3.7-3,6.8-6.8,6.8c-3.7,0-6.8-3-6.8-6.8c0-3.7,3-6.8,6.8-6.8
		C222.3,696.5,225.4,699.5,225.4,703.2z"/>
	<path fill="#A8A8A7" d="M243.2,703.2c0,3.7-3,6.8-6.8,6.8c-3.7,0-6.7-3-6.7-6.8c0-3.7,3-6.7,6.7-6.7
		C240.2,696.5,243.2,699.5,243.2,703.2z"/>
	<path fill="#A8A8A7" d="M261.1,703.3c0,3.7-3,6.8-6.8,6.8c-3.7,0-6.7-3-6.7-6.8c0-3.7,3-6.8,6.7-6.8
		C258,696.5,261.1,699.6,261.1,703.3z"/>
	<path fill="#A8A8A7" d="M278.9,703.3c0,3.7-3,6.8-6.8,6.8c-3.7,0-6.7-3-6.7-6.8c0-3.7,3-6.8,6.7-6.8
		C275.9,696.5,278.9,699.6,278.9,703.3z"/>
	<path fill="#A8A8A7" d="M296.8,703.2c0,3.7-3,6.8-6.8,6.8c-3.7,0-6.7-3-6.7-6.8c0-3.7,3-6.8,6.7-6.8
		C293.7,696.4,296.8,699.4,296.8,703.2z"/>
	<path fill="#A8A8A7" d="M314.6,703.2c0,3.7-3,6.7-6.7,6.7c-3.7,0-6.8-3-6.8-6.7c0-3.7,3-6.8,6.8-6.8
		C311.6,696.4,314.6,699.4,314.6,703.2z"/>
	<path fill="#A8A8A7" d="M528.7,703.2c0,3.7-3,6.8-6.8,6.8c-3.7,0-6.8-3-6.8-6.8c0-3.7,3-6.8,6.8-6.8
		C525.7,696.5,528.7,699.5,528.7,703.2z"/>
	<path fill="#A8A8A7" d="M546.6,703.3c0,3.7-3,6.8-6.8,6.8c-3.7,0-6.8-3-6.8-6.8c0-3.7,3-6.8,6.8-6.8
		C543.6,696.5,546.6,699.5,546.6,703.3z"/>
	<path fill="#A8A8A7" d="M564.4,703.3c0,3.7-3,6.8-6.8,6.8c-3.7,0-6.7-3-6.7-6.8c0-3.7,3-6.8,6.7-6.8
		C561.4,696.5,564.4,699.6,564.4,703.3z"/>
	<path fill="#A8A8A7" d="M582.3,703.2c0,3.7-3,6.8-6.8,6.8c-3.7,0-6.8-3-6.8-6.8c0-3.7,3-6.7,6.8-6.7
		C579.3,696.4,582.3,699.4,582.3,703.2z"/>
	<path fill="#A8A8A7" d="M600.1,703.1c0,3.7-3,6.7-6.8,6.7c-3.7,0-6.7-3-6.7-6.7c0-3.7,3-6.8,6.7-6.8
		C597.1,696.4,600.1,699.4,600.1,703.1z"/>
	<path fill="#A8A8A7" d="M635.8,703.6c0,3.7-3,6.8-6.8,6.8c-3.7,0-6.8-3-6.8-6.8c0-3.7,3-6.7,6.8-6.7
		C632.8,696.8,635.8,699.8,635.8,703.6z"/>
	<path fill="#A8A8A7" d="M653.7,703.4c0,3.7-3,6.8-6.8,6.8c-3.7,0-6.8-3-6.8-6.8c0-3.7,3-6.7,6.8-6.7
		C650.6,696.7,653.7,699.7,653.7,703.4z"/>
	<path fill="#A8A8A7" d="M921.3,703.6c0,3.7-3,6.8-6.8,6.8c-3.7,0-6.8-3-6.8-6.8c0-3.7,3-6.8,6.8-6.8
		C918.3,696.8,921.3,699.8,921.3,703.6z"/>
	<path fill="#A8A8A7" d="M939.2,703.4c0,3.7-3,6.8-6.8,6.8c-3.7,0-6.8-3-6.8-6.8c0-3.7,3-6.8,6.8-6.8
		C936.2,696.7,939.2,699.7,939.2,703.4z"/>
	<path fill="#A8A8A7" d="M957,703.4c0,3.7-3,6.8-6.8,6.8c-3.7,0-6.8-3-6.8-6.8c0-3.7,3-6.8,6.8-6.8C954,696.7,957,699.7,957,703.4z"
		/>
	<path fill="#A8A8A7" d="M974.9,703.5c0,3.7-3,6.8-6.8,6.8c-3.7,0-6.8-3-6.8-6.8s3-6.8,6.8-6.8C971.9,696.7,974.9,699.8,974.9,703.5
		z"/>
	<path fill="#A8A8A7" d="M992.7,703.5c0,3.7-3,6.8-6.8,6.8c-3.7,0-6.8-3-6.8-6.8c0-3.7,3-6.8,6.8-6.8
		C989.7,696.8,992.7,699.8,992.7,703.5z"/>
	<path fill="#A8A8A7" d="M225.4,722.4c0,3.7-3,6.8-6.8,6.8s-6.8-3-6.8-6.8c0-3.7,3-6.8,6.8-6.8S225.4,718.7,225.4,722.4z"/>
	<path fill="#A8A8A7" d="M243.2,722.4c0,3.7-3,6.8-6.7,6.8c-3.7,0-6.8-3-6.8-6.8c0-3.7,3-6.7,6.8-6.7
		C240.2,715.7,243.2,718.7,243.2,722.4z"/>
	<path fill="#A8A8A7" d="M261.1,722.5c0,3.7-3,6.8-6.8,6.8c-3.7,0-6.8-3-6.8-6.8c0-3.7,3-6.7,6.8-6.7
		C258,715.8,261.1,718.8,261.1,722.5z"/>
	<path fill="#A8A8A7" d="M278.9,722.5c0,3.7-3,6.8-6.7,6.8c-3.7,0-6.8-3-6.8-6.8c0-3.7,3-6.8,6.8-6.8
		C275.9,715.8,278.9,718.8,278.9,722.5z"/>
	<path fill="#A8A8A7" d="M296.8,722.4c0,3.7-3,6.7-6.7,6.7c-3.7,0-6.8-3-6.8-6.7c0-3.7,3-6.8,6.8-6.8
		C293.7,715.6,296.8,718.7,296.8,722.4z"/>
	<path fill="#A8A8A7" d="M528.7,722.4c0,3.7-3,6.8-6.8,6.8c-3.7,0-6.8-3-6.8-6.8c0-3.7,3-6.7,6.8-6.7
		C525.7,715.7,528.7,718.7,528.7,722.4z"/>
	<path fill="#A8A8A7" d="M546.6,722.5c0,3.7-3,6.8-6.8,6.8s-6.8-3-6.8-6.8c0-3.7,3-6.8,6.8-6.8S546.6,718.8,546.6,722.5z"/>
	<path fill="#A8A8A7" d="M564.4,722.5c0,3.7-3,6.8-6.8,6.8c-3.7,0-6.8-3-6.8-6.8c0-3.7,3-6.8,6.8-6.8
		C561.4,715.7,564.4,718.8,564.4,722.5z"/>
	<path fill="#A8A8A7" d="M582.3,722.4c0,3.7-3,6.8-6.8,6.8c-3.7,0-6.8-3-6.8-6.8s3-6.8,6.8-6.8C579.3,715.6,582.3,718.7,582.3,722.4
		z"/>
	<path fill="#A8A8A7" d="M600.1,722.4c0,3.7-3,6.8-6.8,6.8c-3.7,0-6.7-3-6.7-6.8c0-3.7,3-6.7,6.7-6.7
		C597.1,715.6,600.1,718.6,600.1,722.4z"/>
	<path fill="#A8A8A7" d="M635.8,722.8c0,3.7-3,6.8-6.8,6.8c-3.7,0-6.8-3-6.8-6.8c0-3.7,3-6.7,6.8-6.7
		C632.8,716.1,635.8,719.1,635.8,722.8z"/>
	<path fill="#A8A8A7" d="M885.6,722.5c0,3.7-3,6.8-6.7,6.8c-3.7,0-6.8-3-6.8-6.8c0-3.7,3-6.7,6.8-6.7
		C882.6,715.8,885.6,718.8,885.6,722.5z"/>
	<path fill="#A8A8A7" d="M903.5,722.8c0,3.7-3,6.8-6.8,6.8c-3.7,0-6.8-3-6.8-6.8c0-3.7,3-6.7,6.8-6.7
		C900.5,716,903.5,719.1,903.5,722.8z"/>
	<path fill="#A8A8A7" d="M921.3,722.8c0,3.7-3,6.8-6.8,6.8c-3.7,0-6.8-3-6.8-6.8c0-3.7,3-6.8,6.8-6.8
		C918.3,716,921.3,719.1,921.3,722.8z"/>
	<path fill="#A8A8A7" d="M939.2,722.6c0,3.7-3,6.8-6.8,6.8c-3.7,0-6.8-3-6.8-6.8c0-3.7,3-6.8,6.8-6.8
		C936.2,715.9,939.2,718.9,939.2,722.6z"/>
	<path fill="#A8A8A7" d="M957,722.6c0,3.7-3,6.8-6.8,6.8c-3.7,0-6.7-3-6.7-6.8c0-3.7,3-6.7,6.7-6.7C954,715.9,957,718.9,957,722.6z"
		/>
	<path fill="#A8A8A7" d="M974.9,722.7c0,3.7-3,6.8-6.8,6.8c-3.7,0-6.8-3-6.8-6.8c0-3.7,3-6.7,6.8-6.7
		C971.9,716,974.9,719,974.9,722.7z"/>
	<path fill="#A8A8A7" d="M992.7,722.7c0,3.7-3,6.8-6.8,6.8c-3.7,0-6.8-3-6.8-6.8c0-3.7,3-6.7,6.8-6.7
		C989.7,716,992.7,719,992.7,722.7z"/>
	<path fill="#A8A8A7" d="M225.4,741.7c0,3.7-3,6.8-6.8,6.8c-3.7,0-6.8-3-6.8-6.8c0-3.7,3-6.7,6.8-6.7
		C222.3,734.9,225.4,737.9,225.4,741.7z"/>
	<path fill="#A8A8A7" d="M243.2,741.7c0,3.7-3,6.8-6.8,6.8c-3.7,0-6.7-3-6.7-6.8c0-3.7,3-6.7,6.7-6.7
		C240.2,734.9,243.2,738,243.2,741.7z"/>
	<path fill="#A8A8A7" d="M261.1,741.8c0,3.7-3,6.8-6.8,6.8c-3.7,0-6.7-3-6.7-6.8c0-3.7,3-6.8,6.7-6.8C258,735,261.1,738,261.1,741.8
		z"/>
	<path fill="#A8A8A7" d="M278.9,741.8c0,3.7-3,6.7-6.8,6.7c-3.7,0-6.7-3-6.7-6.7c0-3.7,3-6.8,6.7-6.8
		C275.9,735,278.9,738,278.9,741.8z"/>
	<path fill="#A8A8A7" d="M528.7,741.7c0,3.7-3,6.8-6.8,6.8c-3.7,0-6.8-3-6.8-6.8c0-3.7,3-6.8,6.8-6.8
		C525.7,734.9,528.7,737.9,528.7,741.7z"/>
	<path fill="#A8A8A7" d="M546.6,741.7c0,3.7-3,6.7-6.8,6.7c-3.7,0-6.8-3-6.8-6.7c0-3.7,3-6.8,6.8-6.8
		C543.6,735,546.6,738,546.6,741.7z"/>
	<path fill="#A8A8A7" d="M564.4,741.7c0,3.7-3,6.8-6.8,6.8c-3.7,0-6.7-3-6.7-6.8c0-3.7,3-6.7,6.7-6.7
		C561.4,735,564.4,738,564.4,741.7z"/>
	<path fill="#A8A8A7" d="M582.3,741.6c0,3.7-3,6.7-6.8,6.7c-3.7,0-6.8-3-6.8-6.7c0-3.7,3-6.8,6.8-6.8
		C579.3,734.9,582.3,737.9,582.3,741.6z"/>
	<path fill="#A8A8A7" d="M885.6,741.7c0,3.7-3,6.8-6.8,6.8c-3.7,0-6.8-3-6.8-6.8c0-3.7,3-6.7,6.8-6.7
		C882.6,735,885.6,738,885.6,741.7z"/>
	<path fill="#A8A8A7" d="M903.5,742c0,3.7-3,6.8-6.8,6.8c-3.7,0-6.7-3-6.7-6.8c0-3.7,3-6.8,6.7-6.8
		C900.5,735.3,903.5,738.3,903.5,742z"/>
	<path fill="#A8A8A7" d="M921.3,742c0,3.7-3,6.8-6.8,6.8c-3.7,0-6.8-3-6.8-6.8s3-6.8,6.8-6.8C918.3,735.3,921.3,738.3,921.3,742z"/>
	<path fill="#A8A8A7" d="M939.2,741.9c0,3.7-3,6.8-6.8,6.8c-3.7,0-6.8-3-6.8-6.8c0-3.7,3-6.8,6.8-6.8
		C936.2,735.1,939.2,738.2,939.2,741.9z"/>
	<path fill="#A8A8A7" d="M957,741.9c0,3.7-3,6.8-6.8,6.8c-3.7,0-6.8-3-6.8-6.8c0-3.7,3-6.8,6.8-6.8C954,735.1,957,738.2,957,741.9z"
		/>
	<path fill="#A8A8A7" d="M974.9,742c0,3.7-3,6.8-6.8,6.8c-3.7,0-6.8-3-6.8-6.8c0-3.7,3-6.8,6.8-6.8
		C971.9,735.2,974.9,738.2,974.9,742z"/>
	<path fill="#A8A8A7" d="M992.7,742c0,3.7-3,6.8-6.8,6.8c-3.7,0-6.8-3-6.8-6.8c0-3.7,3-6.7,6.8-6.7
		C989.7,735.2,992.7,738.2,992.7,742z"/>
	<path fill="#A8A8A7" d="M225.4,760.9c0,3.7-3,6.8-6.8,6.8c-3.7,0-6.8-3-6.8-6.8c0-3.7,3-6.8,6.8-6.8
		C222.3,754.2,225.4,757.2,225.4,760.9z"/>
	<path fill="#A8A8A7" d="M243.2,760.9c0,3.7-3,6.8-6.8,6.8c-3.7,0-6.7-3-6.7-6.8c0-3.7,3-6.7,6.7-6.7
		C240.2,754.2,243.2,757.2,243.2,760.9z"/>
	<path fill="#A8A8A7" d="M261.1,761c0,3.7-3,6.8-6.8,6.8c-3.7,0-6.7-3-6.7-6.8c0-3.7,3-6.8,6.7-6.8C258,754.2,261.1,757.3,261.1,761
		z"/>
	<path fill="#A8A8A7" d="M278.9,761c0,3.7-3,6.7-6.8,6.7c-3.7,0-6.7-3-6.7-6.7c0-3.7,3-6.8,6.7-6.8
		C275.9,754.2,278.9,757.3,278.9,761z"/>
	<path fill="#A8A8A7" d="M546.6,760.9c0,3.7-3,6.8-6.8,6.8c-3.7,0-6.8-3-6.8-6.8c0-3.7,3-6.7,6.8-6.7
		C543.6,754.2,546.6,757.2,546.6,760.9z"/>
	<path fill="#A8A8A7" d="M564.4,761c0,3.7-3,6.7-6.8,6.7c-3.7,0-6.7-3-6.7-6.7c0-3.7,3-6.8,6.7-6.8
		C561.4,754.2,564.4,757.2,564.4,761z"/>
	<path fill="#A8A8A7" d="M885.6,761c0,3.7-3,6.8-6.8,6.8c-3.7,0-6.8-3-6.8-6.8c0-3.7,3-6.8,6.8-6.8
		C882.6,754.2,885.6,757.3,885.6,761z"/>
	<path fill="#A8A8A7" d="M903.5,761.2c0,3.7-3,6.8-6.8,6.8c-3.7,0-6.7-3-6.7-6.8c0-3.7,3-6.7,6.7-6.7
		C900.5,754.5,903.5,757.5,903.5,761.2z"/>
	<path fill="#A8A8A7" d="M921.3,761.3c0,3.7-3,6.8-6.8,6.8c-3.7,0-6.8-3-6.8-6.8c0-3.7,3-6.8,6.8-6.8
		C918.3,754.5,921.3,757.5,921.3,761.3z"/>
	<path fill="#A8A8A7" d="M939.2,761.1c0,3.7-3,6.8-6.8,6.8c-3.7,0-6.8-3-6.8-6.8c0-3.7,3-6.8,6.8-6.8
		C936.2,754.4,939.2,757.4,939.2,761.1z"/>
	<path fill="#A8A8A7" d="M957,761.1c0,3.7-3,6.8-6.8,6.8c-3.7,0-6.8-3-6.8-6.8c0-3.7,3-6.8,6.8-6.8C954,754.4,957,757.4,957,761.1z"
		/>
	<path fill="#A8A8A7" d="M974.9,761.2c0,3.7-3,6.8-6.8,6.8c-3.7,0-6.8-3-6.8-6.8c0-3.7,3-6.7,6.8-6.7
		C971.9,754.4,974.9,757.5,974.9,761.2z"/>
	<path fill="#A8A8A7" d="M992.7,761.2c0,3.7-3,6.8-6.8,6.8c-3.7,0-6.8-3-6.8-6.8c0-3.7,3-6.8,6.8-6.8
		C989.7,754.4,992.7,757.5,992.7,761.2z"/>
	<path fill="#A8A8A7" d="M225.4,780.1c0,3.7-3,6.8-6.8,6.8c-3.7,0-6.7-3-6.7-6.8c0-3.7,3-6.8,6.7-6.8
		C222.3,773.4,225.4,776.4,225.4,780.1z"/>
	<path fill="#A8A8A7" d="M243.2,780.1c0,3.7-3,6.8-6.8,6.8c-3.7,0-6.7-3-6.7-6.8c0-3.7,3-6.8,6.7-6.8
		C240.2,773.4,243.2,776.4,243.2,780.1z"/>
	<path fill="#A8A8A7" d="M261.1,780.2c0,3.7-3,6.8-6.8,6.8c-3.7,0-6.7-3-6.7-6.8c0-3.7,3-6.8,6.7-6.8
		C258,773.5,261.1,776.5,261.1,780.2z"/>
	<path fill="#A8A8A7" d="M939.2,780.3c0,3.7-3,6.8-6.8,6.8c-3.7,0-6.8-3-6.8-6.8c0-3.7,3-6.7,6.8-6.7
		C936.2,773.6,939.2,776.6,939.2,780.3z"/>
	<path fill="#A8A8A7" d="M957,780.3c0,3.7-3,6.8-6.8,6.8c-3.7,0-6.7-3-6.7-6.8c0-3.7,3-6.8,6.7-6.8C954,773.6,957,776.6,957,780.3z"
		/>
	<path fill="#A8A8A7" d="M974.9,780.4c0,3.7-3,6.8-6.8,6.8c-3.7,0-6.8-3-6.8-6.8c0-3.7,3-6.8,6.8-6.8
		C971.9,773.7,974.9,776.7,974.9,780.4z"/>
	<path fill="#A8A8A7" d="M225.4,799.4c0,3.7-3,6.8-6.8,6.8c-3.7,0-6.8-3-6.8-6.8c0-3.7,3-6.8,6.8-6.8
		C222.3,792.6,225.4,795.6,225.4,799.4z"/>
	<path fill="#A8A8A7" d="M243.2,799.4c0,3.7-3,6.7-6.8,6.7c-3.7,0-6.7-3-6.7-6.7c0-3.7,3-6.8,6.7-6.8
		C240.2,792.6,243.2,795.6,243.2,799.4z"/>
	<path fill="#A8A8A7" d="M261.1,799.5c0,3.7-3,6.8-6.8,6.8c-3.7,0-6.7-3-6.7-6.8c0-3.7,3-6.8,6.7-6.8
		C258,792.7,261.1,795.7,261.1,799.5z"/>
	<path fill="#A8A8A7" d="M939.2,799.6c0,3.7-3,6.8-6.8,6.8c-3.7,0-6.8-3-6.8-6.8c0-3.7,3-6.8,6.8-6.8
		C936.2,792.8,939.2,795.8,939.2,799.6z"/>
	<path fill="#A8A8A7" d="M957,799.6c0,3.7-3,6.7-6.8,6.7c-3.7,0-6.8-3-6.8-6.7c0-3.7,3-6.8,6.8-6.8C954,792.8,957,795.8,957,799.6z"
		/>
	<path fill="#A8A8A7" d="M1028.4,799.5c0,3.7-3,6.8-6.8,6.8c-3.7,0-6.8-3-6.8-6.8c0-3.7,3-6.8,6.8-6.8
		C1025.4,792.7,1028.4,795.7,1028.4,799.5z"/>
	<path fill="#A8A8A7" d="M243.2,818.6c0,3.7-3,6.8-6.8,6.8c-3.7,0-6.7-3-6.7-6.8c0-3.7,3-6.7,6.7-6.7
		C240.2,811.9,243.2,814.9,243.2,818.6z"/>
	<path fill="#A8A8A7" d="M261.1,818.7c0,3.7-3,6.8-6.8,6.8c-3.7,0-6.7-3-6.7-6.8c0-3.7,3-6.7,6.7-6.7
		C258,811.9,261.1,815,261.1,818.7z"/>
	<path fill="#A8A8A7" d="M939.2,818.8c0,3.7-3,6.8-6.8,6.8c-3.7,0-6.8-3-6.8-6.8c0-3.7,3-6.7,6.8-6.7
		C936.2,812,939.2,815.1,939.2,818.8z"/>
	<path fill="#A8A8A7" d="M1010.5,818.7c0,3.7-3,6.7-6.7,6.7c-3.7,0-6.8-3-6.8-6.7c0-3.7,3-6.8,6.8-6.8
		C1007.5,811.9,1010.5,815,1010.5,818.7z"/>
	<path fill="#A8A8A7" d="M1028.4,818.7c0,3.7-3,6.8-6.8,6.8c-3.7,0-6.8-3-6.8-6.8c0-3.7,3-6.7,6.8-6.7
		C1025.4,812,1028.4,815,1028.4,818.7z"/>
	<path fill="#A8A8A7" d="M243.2,837.8c0,3.7-3,6.8-6.8,6.8c-3.7,0-6.7-3-6.7-6.8c0-3.7,3-6.7,6.7-6.7
		C240.2,831.1,243.2,834.1,243.2,837.8z"/>
	<path fill="#A8A8A7" d="M261.1,837.9c0,3.7-3,6.8-6.8,6.8c-3.7,0-6.7-3-6.7-6.8c0-3.7,3-6.7,6.7-6.7
		C258,831.2,261.1,834.2,261.1,837.9z"/>
	<path fill="#A8A8A7" d="M974.9,838.1c0,3.7-3,6.8-6.8,6.8c-3.7,0-6.8-3-6.8-6.8c0-3.7,3-6.7,6.8-6.7
		C971.9,831.4,974.9,834.4,974.9,838.1z"/>
	<path fill="#A8A8A7" d="M992.7,838.1c0,3.7-3,6.8-6.7,6.8c-3.7,0-6.8-3-6.8-6.8c0-3.7,3-6.8,6.8-6.8
		C989.7,831.4,992.7,834.4,992.7,838.1z"/>
	<path fill="#A8A8A7" d="M261.1,857.1c0,3.7-3,6.8-6.8,6.8c-3.7,0-6.7-3-6.7-6.8c0-3.7,3-6.8,6.7-6.8
		C258,850.4,261.1,853.4,261.1,857.1z"/>
	<path fill="#A8A8A7" d="M117.7,280.2c0,3.7-3,6.8-6.8,6.8c-3.7,0-6.8-3-6.8-6.8c0-3.7,3-6.7,6.8-6.7
		C114.7,273.5,117.7,276.5,117.7,280.2z"/>
	<circle fill="#A8A8A7" cx="128.8" cy="280.2" r="6.8"/>
	<path fill="#A8A8A7" d="M331.8,280.3c0,3.7-3,6.8-6.8,6.8c-3.7,0-6.8-3-6.8-6.8c0-3.7,3-6.7,6.8-6.7
		C328.8,273.5,331.8,276.6,331.8,280.3z"/>
	<path fill="#A8A8A7" d="M349.7,280.3c0,3.7-3,6.8-6.8,6.8c-3.7,0-6.8-3-6.8-6.8c0-3.7,3-6.8,6.8-6.8
		C346.7,273.5,349.7,276.6,349.7,280.3z"/>
	<path fill="#A8A8A7" d="M367.5,280.1c0,3.7-3,6.8-6.7,6.8c-3.7,0-6.8-3-6.8-6.8c0-3.7,3-6.8,6.8-6.8
		C364.5,273.3,367.5,276.4,367.5,280.1z"/>
	<path fill="#A8A8A7" d="M385.4,280.1c0,3.7-3,6.8-6.8,6.8c-3.7,0-6.7-3-6.7-6.8c0-3.7,3-6.8,6.7-6.8
		C382.4,273.3,385.4,276.4,385.4,280.1z"/>
	<path fill="#A8A8A7" d="M403.2,280.2c0,3.7-3,6.8-6.8,6.8c-3.7,0-6.8-3-6.8-6.8c0-3.7,3-6.7,6.8-6.7
		C400.2,273.4,403.2,276.5,403.2,280.2z"/>
	<path fill="#A8A8A7" d="M421.1,280.2c0,3.7-3,6.8-6.8,6.8c-3.7,0-6.8-3-6.8-6.8c0-3.7,3-6.8,6.8-6.8
		C418,273.4,421.1,276.5,421.1,280.2z"/>
	<path fill="#A8A8A7" d="M438.9,280c0,3.7-3,6.8-6.8,6.8c-3.7,0-6.8-3-6.8-6.8c0-3.7,3-6.7,6.8-6.7
		C435.9,273.3,438.9,276.3,438.9,280z"/>
	<path fill="#A8A8A7" d="M653.1,280.3c0,3.7-3,6.8-6.8,6.8c-3.7,0-6.8-3-6.8-6.8c0-3.7,3-6.7,6.8-6.7
		C650,273.6,653.1,276.6,653.1,280.3z"/>
	<path fill="#A8A8A7" d="M670.9,280.3c0,3.7-3,6.8-6.8,6.8c-3.7,0-6.7-3-6.7-6.8c0-3.7,3-6.8,6.7-6.8
		C667.9,273.6,670.9,276.6,670.9,280.3z"/>
	<path fill="#A8A8A7" d="M688.8,280.4c0,3.7-3,6.8-6.8,6.8c-3.7,0-6.8-3-6.8-6.8s3-6.8,6.8-6.8C685.7,273.6,688.8,276.6,688.8,280.4
		z"/>
	<path fill="#A8A8A7" d="M706.6,280.4c0,3.7-3,6.8-6.8,6.8c-3.7,0-6.7-3-6.7-6.8c0-3.7,3-6.8,6.7-6.8
		C703.6,273.6,706.6,276.7,706.6,280.4z"/>
	<path fill="#A8A8A7" d="M724.4,280.2c0,3.7-3,6.8-6.8,6.8c-3.7,0-6.8-3-6.8-6.8c0-3.7,3-6.8,6.8-6.8
		C721.4,273.4,724.4,276.5,724.4,280.2z"/>
	<path fill="#A8A8A7" d="M742.3,280.2c0,3.7-3,6.8-6.8,6.8c-3.7,0-6.8-3-6.8-6.8c0-3.7,3-6.8,6.8-6.8
		C739.3,273.4,742.3,276.5,742.3,280.2z"/>
	<path fill="#A8A8A7" d="M760.1,280.4c0,3.7-3,6.8-6.8,6.8c-3.7,0-6.8-3-6.8-6.8c0-3.7,3-6.8,6.8-6.8
		C757.1,273.6,760.1,276.7,760.1,280.4z"/>
	<path fill="#A8A8A7" d="M778,280.4c0,3.7-3,6.8-6.8,6.8c-3.7,0-6.7-3-6.7-6.8c0-3.7,3-6.8,6.7-6.8C775,273.7,778,276.7,778,280.4z"
		/>
	<path fill="#A8A8A7" d="M795.8,280.3c0,3.7-3,6.8-6.8,6.8c-3.7,0-6.8-3-6.8-6.8c0-3.7,3-6.8,6.8-6.8
		C792.8,273.5,795.8,276.5,795.8,280.3z"/>
	<path fill="#A8A8A7" d="M813.7,280.3c0,3.7-3,6.8-6.8,6.8c-3.7,0-6.8-3-6.8-6.8c0-3.7,3-6.8,6.8-6.8
		C810.6,273.5,813.7,276.5,813.7,280.3z"/>
	<path fill="#A8A8A7" d="M831.5,280.3c0,3.7-3,6.8-6.7,6.8c-3.7,0-6.8-3-6.8-6.8c0-3.7,3-6.7,6.8-6.7
		C828.5,273.6,831.5,276.6,831.5,280.3z"/>
	<path fill="#A8A8A7" d="M849.4,280.4c0,3.7-3,6.8-6.8,6.8c-3.7,0-6.8-3-6.8-6.8c0-3.7,3-6.8,6.8-6.8
		C846.3,273.6,849.4,276.6,849.4,280.4z"/>
	<path fill="#A8A8A7" d="M867.2,280.1c0,3.7-3,6.8-6.8,6.8c-3.7,0-6.7-3-6.7-6.8c0-3.7,3-6.8,6.7-6.8
		C864.2,273.4,867.2,276.4,867.2,280.1z"/>
	<path fill="#A8A8A7" d="M82,299.3c0,3.7-3,6.8-6.8,6.8c-3.7,0-6.8-3-6.8-6.8c0-3.7,3-6.8,6.8-6.8C79,292.6,82,295.6,82,299.3z"/>
	<path fill="#A8A8A7" d="M99.9,299.3c0,3.7-3,6.8-6.8,6.8c-3.7,0-6.8-3-6.8-6.8c0-3.7,3-6.7,6.8-6.7
		C96.8,292.6,99.9,295.6,99.9,299.3z"/>
	<path fill="#A8A8A7" d="M117.7,299.4c0,3.7-3,6.8-6.8,6.8c-3.7,0-6.8-3-6.8-6.8c0-3.7,3-6.8,6.8-6.8
		C114.7,292.7,117.7,295.7,117.7,299.4z"/>
	<path fill="#A8A8A7" d="M135.5,299.4c0,3.7-3,6.8-6.8,6.8c-3.7,0-6.8-3-6.8-6.8c0-3.7,3-6.7,6.8-6.7
		C132.5,292.7,135.5,295.7,135.5,299.4z"/>
	<path fill="#A8A8A7" d="M153.4,299.3c0,3.7-3,6.8-6.8,6.8c-3.7,0-6.8-3-6.8-6.8c0-3.7,3-6.7,6.8-6.7
		C150.4,292.5,153.4,295.5,153.4,299.3z"/>
	<path fill="#A8A8A7" d="M171.2,299.3c0,3.7-3,6.8-6.7,6.8c-3.7,0-6.8-3-6.8-6.8c0-3.7,3-6.8,6.8-6.8
		C168.2,292.5,171.2,295.6,171.2,299.3z"/>
	<path fill="#A8A8A7" d="M189.1,299.5c0,3.7-3,6.8-6.8,6.8c-3.7,0-6.8-3-6.8-6.8c0-3.7,3-6.8,6.8-6.8
		C186.1,292.7,189.1,295.8,189.1,299.5z"/>
	<path fill="#A8A8A7" d="M206.9,299.5c0,3.7-3,6.8-6.8,6.8c-3.7,0-6.8-3-6.8-6.8c0-3.7,3-6.8,6.8-6.8
		C203.9,292.7,206.9,295.8,206.9,299.5z"/>
	<path fill="#A8A8A7" d="M224.8,299.3c0,3.7-3,6.8-6.8,6.8c-3.7,0-6.8-3-6.8-6.8c0-3.7,3-6.7,6.8-6.7
		C221.7,292.6,224.8,295.6,224.8,299.3z"/>
	<circle fill="#A8A8A7" cx="235.9" cy="299.3" r="6.8"/>
	<path fill="#A8A8A7" d="M260.5,299.4c0,3.7-3,6.8-6.8,6.8c-3.7,0-6.7-3-6.7-6.8c0-3.7,3-6.8,6.7-6.8
		C257.4,292.6,260.5,295.7,260.5,299.4z"/>
	<path fill="#A8A8A7" d="M278.3,299.4c0,3.7-3,6.8-6.7,6.8c-3.7,0-6.8-3-6.8-6.8c0-3.7,3-6.7,6.8-6.7
		C275.3,292.6,278.3,295.7,278.3,299.4z"/>
	<path fill="#A8A8A7" d="M296.2,299.2c0,3.7-3,6.8-6.8,6.8c-3.7,0-6.8-3-6.8-6.8c0-3.7,3-6.8,6.8-6.8
		C293.1,292.5,296.2,295.5,296.2,299.2z"/>
	<circle fill="#A8A8A7" cx="342.9" cy="299.5" r="6.8"/>
	<path fill="#A8A8A7" d="M367.5,299.3c0,3.7-3,6.8-6.7,6.8c-3.7,0-6.8-3-6.8-6.8c0-3.7,3-6.8,6.8-6.8
		C364.5,292.6,367.5,295.6,367.5,299.3z"/>
	<path fill="#A8A8A7" d="M385.4,299.3c0,3.7-3,6.8-6.8,6.8c-3.7,0-6.7-3-6.7-6.8c0-3.7,3-6.8,6.7-6.8
		C382.4,292.6,385.4,295.6,385.4,299.3z"/>
	<path fill="#A8A8A7" d="M403.2,299.4c0,3.7-3,6.8-6.8,6.8c-3.7,0-6.8-3-6.8-6.8c0-3.7,3-6.8,6.8-6.8
		C400.2,292.7,403.2,295.7,403.2,299.4z"/>
	<path fill="#A8A8A7" d="M421.1,299.4c0,3.7-3,6.8-6.8,6.8c-3.7,0-6.8-3-6.8-6.8c0-3.7,3-6.7,6.8-6.7
		C418,292.7,421.1,295.7,421.1,299.4z"/>
	<path fill="#A8A8A7" d="M528.1,299.3c0,3.7-3,6.8-6.8,6.8c-3.7,0-6.8-3-6.8-6.8c0-3.7,3-6.8,6.8-6.8
		C525.1,292.5,528.1,295.6,528.1,299.3z"/>
	<path fill="#A8A8A7" d="M617.4,299.7c0,3.7-3,6.8-6.8,6.8c-3.7,0-6.7-3-6.7-6.8c0-3.7,3-6.8,6.7-6.8
		C614.4,292.9,617.4,295.9,617.4,299.7z"/>
	<path fill="#A8A8A7" d="M635.2,299.7c0,3.7-3,6.8-6.8,6.8c-3.7,0-6.8-3-6.8-6.8c0-3.7,3-6.8,6.8-6.8
		C632.2,292.9,635.2,295.9,635.2,299.7z"/>
	<path fill="#A8A8A7" d="M653.1,299.5c0,3.7-3,6.8-6.8,6.8c-3.7,0-6.8-3-6.8-6.8c0-3.7,3-6.8,6.8-6.8
		C650,292.8,653.1,295.8,653.1,299.5z"/>
	<path fill="#A8A8A7" d="M670.9,299.5c0,3.7-3,6.8-6.8,6.8c-3.7,0-6.7-3-6.7-6.8c0-3.7,3-6.7,6.7-6.7
		C667.9,292.8,670.9,295.8,670.9,299.5z"/>
	<path fill="#A8A8A7" d="M688.8,299.6c0,3.7-3,6.8-6.8,6.8c-3.7,0-6.8-3-6.8-6.8c0-3.7,3-6.8,6.8-6.8
		C685.7,292.9,688.8,295.9,688.8,299.6z"/>
	<path fill="#A8A8A7" d="M706.6,299.6c0,3.7-3,6.8-6.8,6.8c-3.7,0-6.7-3-6.7-6.8c0-3.7,3-6.8,6.7-6.8
		C703.6,292.9,706.6,295.9,706.6,299.6z"/>
	<path fill="#A8A8A7" d="M724.4,299.4c0,3.7-3,6.8-6.8,6.8c-3.7,0-6.8-3-6.8-6.8c0-3.7,3-6.8,6.8-6.8
		C721.4,292.7,724.4,295.7,724.4,299.4z"/>
	<path fill="#A8A8A7" d="M742.3,299.4c0,3.7-3,6.8-6.8,6.8c-3.7,0-6.8-3-6.8-6.8c0-3.7,3-6.7,6.8-6.7
		C739.3,292.7,742.3,295.7,742.3,299.4z"/>
	<path fill="#A8A8A7" d="M760.1,299.6c0,3.7-3,6.8-6.8,6.8c-3.7,0-6.8-3-6.8-6.8c0-3.7,3-6.8,6.8-6.8
		C757.1,292.9,760.1,295.9,760.1,299.6z"/>
	<path fill="#A8A8A7" d="M778,299.6c0,3.7-3,6.8-6.8,6.8c-3.7,0-6.7-3-6.7-6.8c0-3.7,3-6.8,6.7-6.8C775,292.9,778,295.9,778,299.6z"
		/>
	<path fill="#A8A8A7" d="M795.8,299.5c0,3.7-3,6.8-6.8,6.8c-3.7,0-6.8-3-6.8-6.8c0-3.7,3-6.8,6.8-6.8
		C792.8,292.7,795.8,295.8,795.8,299.5z"/>
	<path fill="#A8A8A7" d="M813.7,299.5c0,3.7-3,6.8-6.8,6.8c-3.7,0-6.8-3-6.8-6.8c0-3.7,3-6.8,6.8-6.8
		C810.6,292.7,813.7,295.8,813.7,299.5z"/>
	<path fill="#A8A8A7" d="M831.5,299.6c0,3.7-3,6.8-6.7,6.8c-3.7,0-6.8-3-6.8-6.8c0-3.7,3-6.8,6.8-6.8
		C828.5,292.8,831.5,295.8,831.5,299.6z"/>
	<path fill="#A8A8A7" d="M849.4,299.6c0,3.7-3,6.8-6.8,6.8c-3.7,0-6.8-3-6.8-6.8c0-3.7,3-6.8,6.8-6.8
		C846.3,292.8,849.4,295.9,849.4,299.6z"/>
	<path fill="#A8A8A7" d="M867.2,299.4c0,3.7-3,6.8-6.8,6.8c-3.7,0-6.7-3-6.7-6.8c0-3.7,3-6.8,6.7-6.8
		C864.2,292.6,867.2,295.6,867.2,299.4z"/>
	<path fill="#A8A8A7" d="M885.1,299.4c0,3.7-3,6.8-6.8,6.8c-3.7,0-6.7-3-6.7-6.8c0-3.7,3-6.7,6.7-6.7
		C882,292.6,885.1,295.7,885.1,299.4z"/>
	<circle fill="#A8A8A7" cx="57.4" cy="318.8" r="6.8"/>
	<path fill="#A8A8A7" d="M82,318.6c0,3.7-3,6.8-6.8,6.8c-3.7,0-6.8-3-6.8-6.8c0-3.7,3-6.7,6.8-6.7C79,311.8,82,314.8,82,318.6z"/>
	<path fill="#A8A8A7" d="M117.7,318.7c0,3.7-3,6.8-6.8,6.8c-3.7,0-6.8-3-6.8-6.8c0-3.7,3-6.8,6.8-6.8
		C114.7,311.9,117.7,314.9,117.7,318.7z"/>
	<path fill="#A8A8A7" d="M135.5,318.7c0,3.7-3,6.8-6.7,6.8c-3.7,0-6.8-3-6.8-6.8c0-3.7,3-6.8,6.8-6.8
		C132.5,311.9,135.5,315,135.5,318.7z"/>
	<path fill="#A8A8A7" d="M153.4,318.5c0,3.7-3,6.8-6.8,6.8c-3.7,0-6.8-3-6.8-6.8c0-3.7,3-6.8,6.8-6.8
		C150.4,311.8,153.4,314.8,153.4,318.5z"/>
	<path fill="#A8A8A7" d="M171.2,318.5c0,3.7-3,6.8-6.7,6.8c-3.7,0-6.8-3-6.8-6.8c0-3.7,3-6.7,6.8-6.7
		C168.2,311.8,171.2,314.8,171.2,318.5z"/>
	<path fill="#A8A8A7" d="M189.1,318.7c0,3.7-3,6.8-6.8,6.8c-3.7,0-6.8-3-6.8-6.8c0-3.7,3-6.7,6.8-6.7
		C186.1,312,189.1,315,189.1,318.7z"/>
	<path fill="#A8A8A7" d="M206.9,318.7c0,3.7-3,6.8-6.7,6.8c-3.7,0-6.8-3-6.8-6.8c0-3.7,3-6.8,6.8-6.8
		C203.9,312,206.9,315,206.9,318.7z"/>
	<path fill="#A8A8A7" d="M224.8,318.5c0,3.7-3,6.8-6.7,6.8c-3.7,0-6.8-3-6.8-6.8c0-3.7,3-6.8,6.8-6.8
		C221.7,311.8,224.8,314.8,224.8,318.5z"/>
	<path fill="#A8A8A7" d="M296.2,318.5c0,3.7-3,6.8-6.8,6.8c-3.7,0-6.8-3-6.8-6.8c0-3.7,3-6.8,6.8-6.8
		C293.1,311.7,296.2,314.8,296.2,318.5z"/>
	<path fill="#A8A8A7" d="M349.7,318.8c0,3.7-3,6.8-6.8,6.8c-3.7,0-6.8-3-6.8-6.8c0-3.7,3-6.8,6.8-6.8
		C346.7,312,349.7,315,349.7,318.8z"/>
	<path fill="#A8A8A7" d="M367.5,318.6c0,3.7-3,6.8-6.8,6.8c-3.7,0-6.8-3-6.8-6.8c0-3.7,3-6.8,6.8-6.8
		C364.5,311.8,367.5,314.8,367.5,318.6z"/>
	<path fill="#A8A8A7" d="M510.3,318.5c0,3.7-3,6.8-6.8,6.8c-3.7,0-6.7-3-6.7-6.8c0-3.7,3-6.8,6.7-6.8
		C507.3,311.8,510.3,314.8,510.3,318.5z"/>
	<path fill="#A8A8A7" d="M528.2,318.5c0,3.7-3,6.8-6.8,6.8c-3.7,0-6.8-3-6.8-6.8c0-3.7,3-6.8,6.8-6.8
		C525.1,311.8,528.2,314.8,528.2,318.5z"/>
	<path fill="#A8A8A7" d="M546,318.6c0,3.7-3,6.8-6.7,6.8c-3.7,0-6.8-3-6.8-6.8c0-3.7,3-6.7,6.8-6.7C543,311.8,546,314.9,546,318.6z"
		/>
	<circle fill="#A8A8A7" cx="557.1" cy="318.6" r="6.8"/>
	<path fill="#A8A8A7" d="M581.7,318.5c0,3.7-3,6.8-6.8,6.8c-3.7,0-6.8-3-6.8-6.8c0-3.7,3-6.7,6.8-6.7
		C578.7,311.7,581.7,314.7,581.7,318.5z"/>
	<path fill="#A8A8A7" d="M599.5,318.5c0,3.7-3,6.8-6.7,6.8c-3.7,0-6.8-3-6.8-6.8c0-3.7,3-6.8,6.8-6.8
		C596.5,311.7,599.5,314.7,599.5,318.5z"/>
	<path fill="#A8A8A7" d="M617.4,318.9c0,3.7-3,6.8-6.8,6.8c-3.7,0-6.7-3-6.7-6.8c0-3.7,3-6.8,6.7-6.8
		C614.4,312.1,617.4,315.2,617.4,318.9z"/>
	<path fill="#A8A8A7" d="M635.2,318.9c0,3.7-3,6.8-6.8,6.8c-3.7,0-6.8-3-6.8-6.8c0-3.7,3-6.8,6.8-6.8
		C632.2,312.1,635.2,315.2,635.2,318.9z"/>
	<path fill="#A8A8A7" d="M653.1,318.8c0,3.7-3,6.8-6.8,6.8c-3.7,0-6.8-3-6.8-6.8c0-3.7,3-6.8,6.8-6.8C650,312,653.1,315,653.1,318.8
		z"/>
	<path fill="#A8A8A7" d="M670.9,318.8c0,3.7-3,6.8-6.8,6.8c-3.7,0-6.8-3-6.8-6.8c0-3.7,3-6.7,6.8-6.7
		C667.9,312,670.9,315,670.9,318.8z"/>
	<path fill="#A8A8A7" d="M688.8,318.8c0,3.7-3,6.8-6.8,6.8c-3.7,0-6.8-3-6.8-6.8c0-3.7,3-6.8,6.8-6.8
		C685.7,312.1,688.8,315.1,688.8,318.8z"/>
	<path fill="#A8A8A7" d="M706.6,318.8c0,3.7-3,6.8-6.7,6.8c-3.7,0-6.8-3-6.8-6.8c0-3.7,3-6.7,6.8-6.7
		C703.6,312.1,706.6,315.1,706.6,318.8z"/>
	<path fill="#A8A8A7" d="M724.4,318.7c0,3.7-3,6.8-6.8,6.8c-3.7,0-6.8-3-6.8-6.8c0-3.7,3-6.8,6.8-6.8
		C721.4,311.9,724.4,314.9,724.4,318.7z"/>
	<path fill="#A8A8A7" d="M742.3,318.7c0,3.7-3,6.8-6.8,6.8c-3.7,0-6.8-3-6.8-6.8c0-3.7,3-6.7,6.8-6.7
		C739.3,311.9,742.3,314.9,742.3,318.7z"/>
	<path fill="#A8A8A7" d="M760.1,318.9c0,3.7-3,6.7-6.7,6.7c-3.7,0-6.8-3-6.8-6.7c0-3.7,3-6.8,6.8-6.8
		C757.1,312.1,760.1,315.1,760.1,318.9z"/>
	<circle fill="#A8A8A7" cx="771.2" cy="318.9" r="6.8"/>
	<path fill="#A8A8A7" d="M795.8,318.7c0,3.7-3,6.8-6.8,6.8c-3.7,0-6.8-3-6.8-6.8c0-3.7,3-6.8,6.8-6.8
		C792.8,312,795.8,315,795.8,318.7z"/>
	<path fill="#A8A8A7" d="M813.7,318.7c0,3.7-3,6.8-6.7,6.8c-3.7,0-6.8-3-6.8-6.8c0-3.7,3-6.8,6.8-6.8
		C810.6,312,813.7,315,813.7,318.7z"/>
	<path fill="#A8A8A7" d="M831.5,318.8c0,3.7-3,6.8-6.7,6.8c-3.7,0-6.8-3-6.8-6.8c0-3.7,3-6.7,6.8-6.7
		C828.5,312.1,831.5,315.1,831.5,318.8z"/>
	<path fill="#A8A8A7" d="M885.1,318.6c0,3.7-3,6.8-6.8,6.8c-3.7,0-6.7-3-6.7-6.8c0-3.7,3-6.7,6.7-6.7
		C882,311.9,885.1,314.9,885.1,318.6z"/>
	<path fill="#A8A8A7" d="M902.9,318.9c0,3.7-3,6.8-6.8,6.8c-3.7,0-6.8-3-6.8-6.8c0-3.7,3-6.8,6.8-6.8
		C899.9,312.1,902.9,315.2,902.9,318.9z"/>
	<path fill="#A8A8A7" d="M117.7,337.9c0,3.7-3,6.8-6.8,6.8c-3.7,0-6.8-3-6.8-6.8c0-3.7,3-6.7,6.8-6.7
		C114.7,331.2,117.7,334.2,117.7,337.9z"/>
	<path fill="#A8A8A7" d="M135.5,337.9c0,3.7-3,6.8-6.8,6.8c-3.7,0-6.8-3-6.8-6.8c0-3.7,3-6.7,6.8-6.7
		C132.5,331.2,135.5,334.2,135.5,337.9z"/>
	<path fill="#A8A8A7" d="M153.4,337.7c0,3.7-3,6.8-6.8,6.8c-3.7,0-6.8-3-6.8-6.8c0-3.7,3-6.7,6.8-6.7
		C150.4,331,153.4,334,153.4,337.7z"/>
	<path fill="#A8A8A7" d="M171.2,337.7c0,3.7-3,6.8-6.7,6.8c-3.7,0-6.8-3-6.8-6.8c0-3.7,3-6.8,6.8-6.8
		C168.2,331,171.2,334,171.2,337.7z"/>
	<path fill="#A8A8A7" d="M189.1,338c0,3.7-3,6.8-6.8,6.8c-3.7,0-6.8-3-6.8-6.8c0-3.7,3-6.8,6.8-6.8
		C186.1,331.2,189.1,334.2,189.1,338z"/>
	<path fill="#A8A8A7" d="M206.9,338c0,3.7-3,6.8-6.8,6.8c-3.7,0-6.8-3-6.8-6.8c0-3.7,3-6.8,6.8-6.8
		C203.9,331.2,206.9,334.2,206.9,338z"/>
	<path fill="#A8A8A7" d="M224.8,337.8c0,3.7-3,6.8-6.8,6.8c-3.7,0-6.8-3-6.8-6.8c0-3.7,3-6.8,6.8-6.8
		C221.7,331,224.8,334,224.8,337.8z"/>
	<path fill="#A8A8A7" d="M260.5,337.8c0,3.7-3,6.8-6.8,6.8c-3.7,0-6.7-3-6.7-6.8c0-3.7,3-6.8,6.7-6.8
		C257.4,331.1,260.5,334.1,260.5,337.8z"/>
	<path fill="#A8A8A7" d="M278.3,337.9c0,3.7-3,6.8-6.7,6.8c-3.7,0-6.8-3-6.8-6.8c0-3.7,3-6.8,6.8-6.8
		C275.3,331.1,278.3,334.1,278.3,337.9z"/>
	<path fill="#A8A8A7" d="M296.2,337.7c0,3.7-3,6.8-6.8,6.8c-3.7,0-6.8-3-6.8-6.8c0-3.7,3-6.7,6.8-6.7
		C293.1,331,296.2,334,296.2,337.7z"/>
	<path fill="#A8A8A7" d="M456.8,337.7c0,3.7-3,6.8-6.7,6.8c-3.7,0-6.8-3-6.8-6.8c0-3.7,3-6.7,6.8-6.7
		C453.7,331,456.8,334,456.8,337.7z"/>
	<path fill="#A8A8A7" d="M510.3,337.7c0,3.7-3,6.8-6.8,6.8c-3.7,0-6.7-3-6.7-6.8c0-3.7,3-6.7,6.7-6.7
		C507.3,331,510.3,334,510.3,337.7z"/>
	<path fill="#A8A8A7" d="M528.1,337.8c0,3.7-3,6.8-6.8,6.8c-3.7,0-6.8-3-6.8-6.8c0-3.7,3-6.7,6.8-6.7
		C525.1,331,528.1,334,528.1,337.8z"/>
	<path fill="#A8A8A7" d="M546,337.8c0,3.7-3,6.8-6.8,6.8c-3.7,0-6.8-3-6.8-6.8c0-3.7,3-6.7,6.8-6.7C543,331.1,546,334.1,546,337.8z"
		/>
	<path fill="#A8A8A7" d="M563.8,337.8c0,3.7-3,6.8-6.8,6.8c-3.7,0-6.7-3-6.7-6.8c0-3.7,3-6.8,6.7-6.8
		C560.8,331.1,563.8,334.1,563.8,337.8z"/>
	<path fill="#A8A8A7" d="M581.7,337.7c0,3.7-3,6.8-6.8,6.8c-3.7,0-6.8-3-6.8-6.8c0-3.7,3-6.8,6.8-6.8
		C578.7,330.9,581.7,334,581.7,337.7z"/>
	<path fill="#A8A8A7" d="M599.5,337.7c0,3.7-3,6.8-6.7,6.8c-3.7,0-6.8-3-6.8-6.8c0-3.7,3-6.8,6.8-6.8
		C596.5,330.9,599.5,334,599.5,337.7z"/>
	<path fill="#A8A8A7" d="M617.4,338.1c0,3.7-3,6.8-6.8,6.8c-3.7,0-6.7-3-6.7-6.8c0-3.7,3-6.7,6.7-6.7
		C614.4,331.4,617.4,334.4,617.4,338.1z"/>
	<path fill="#A8A8A7" d="M635.2,338.1c0,3.7-3,6.8-6.8,6.8c-3.7,0-6.8-3-6.8-6.8c0-3.7,3-6.8,6.8-6.8
		C632.2,331.4,635.2,334.4,635.2,338.1z"/>
	<path fill="#A8A8A7" d="M653.1,338c0,3.7-3,6.8-6.8,6.8c-3.7,0-6.8-3-6.8-6.8c0-3.7,3-6.8,6.8-6.8C650,331.2,653.1,334.3,653.1,338
		z"/>
	<path fill="#A8A8A7" d="M670.9,338c0,3.7-3,6.8-6.8,6.8c-3.7,0-6.7-3-6.7-6.8c0-3.7,3-6.8,6.7-6.8
		C667.9,331.3,670.9,334.3,670.9,338z"/>
	<path fill="#A8A8A7" d="M688.8,338.1c0,3.7-3,6.7-6.8,6.7c-3.7,0-6.8-3-6.8-6.7c0-3.7,3-6.8,6.8-6.8
		C685.7,331.3,688.8,334.3,688.8,338.1z"/>
	<path fill="#A8A8A7" d="M706.6,338.1c0,3.7-3,6.8-6.8,6.8c-3.7,0-6.7-3-6.7-6.8c0-3.7,3-6.8,6.7-6.8
		C703.6,331.3,706.6,334.3,706.6,338.1z"/>
	<path fill="#A8A8A7" d="M724.4,337.9c0,3.7-3,6.8-6.8,6.8c-3.7,0-6.8-3-6.8-6.8c0-3.7,3-6.7,6.8-6.7
		C721.4,331.1,724.4,334.2,724.4,337.9z"/>
	<path fill="#A8A8A7" d="M742.3,337.9c0,3.7-3,6.8-6.8,6.8c-3.7,0-6.8-3-6.8-6.8c0-3.7,3-6.8,6.8-6.8
		C739.3,331.1,742.3,334.2,742.3,337.9z"/>
	<path fill="#A8A8A7" d="M760.1,338.1c0,3.7-3,6.8-6.8,6.8c-3.7,0-6.8-3-6.8-6.8c0-3.7,3-6.7,6.8-6.7
		C757.1,331.3,760.1,334.4,760.1,338.1z"/>
	<path fill="#A8A8A7" d="M778,338.1c0,3.7-3,6.8-6.8,6.8c-3.7,0-6.7-3-6.7-6.8c0-3.7,3-6.8,6.7-6.8C775,331.3,778,334.4,778,338.1z"
		/>
	<path fill="#A8A8A7" d="M795.8,337.9c0,3.7-3,6.8-6.8,6.8c-3.7,0-6.8-3-6.8-6.8c0-3.7,3-6.7,6.8-6.7
		C792.8,331.2,795.8,334.2,795.8,337.9z"/>
	<path fill="#A8A8A7" d="M813.7,337.9c0,3.7-3,6.8-6.8,6.8c-3.7,0-6.8-3-6.8-6.8c0-3.7,3-6.7,6.8-6.7
		C810.6,331.2,813.7,334.2,813.7,337.9z"/>
	<path fill="#A8A8A7" d="M831.5,338c0,3.7-3,6.8-6.7,6.8c-3.7,0-6.8-3-6.8-6.8c0-3.7,3-6.8,6.8-6.8
		C828.5,331.3,831.5,334.3,831.5,338z"/>
	<path fill="#A8A8A7" d="M849.4,338c0,3.7-3,6.8-6.8,6.8c-3.7,0-6.8-3-6.8-6.8c0-3.7,3-6.8,6.8-6.8
		C846.3,331.3,849.4,334.3,849.4,338z"/>
	<path fill="#A8A8A7" d="M902.9,338.1c0,3.7-3,6.8-6.8,6.8c-3.7,0-6.8-3-6.8-6.8c0-3.7,3-6.8,6.8-6.8
		C899.9,331.4,902.9,334.4,902.9,338.1z"/>
	<path fill="#A8A8A7" d="M117.7,357.1c0,3.7-3,6.8-6.8,6.8c-3.7,0-6.8-3-6.8-6.8c0-3.7,3-6.7,6.8-6.7
		C114.7,350.4,117.7,353.4,117.7,357.1z"/>
	<path fill="#A8A8A7" d="M135.5,357.1c0,3.7-3,6.8-6.7,6.8c-3.7,0-6.8-3-6.8-6.8c0-3.7,3-6.8,6.8-6.8
		C132.5,350.4,135.5,353.4,135.5,357.1z"/>
	<path fill="#A8A8A7" d="M153.4,357c0,3.7-3,6.8-6.8,6.8c-3.7,0-6.8-3-6.8-6.8c0-3.7,3-6.7,6.8-6.7
		C150.4,350.2,153.4,353.2,153.4,357z"/>
	<path fill="#A8A8A7" d="M171.2,357c0,3.7-3,6.8-6.7,6.8c-3.7,0-6.8-3-6.8-6.8c0-3.7,3-6.8,6.8-6.8
		C168.2,350.2,171.2,353.2,171.2,357z"/>
	<circle fill="#A8A8A7" cx="182.3" cy="357.2" r="6.8"/>
	<path fill="#A8A8A7" d="M206.9,357.2c0,3.7-3,6.8-6.7,6.8c-3.7,0-6.8-3-6.8-6.8c0-3.7,3-6.8,6.8-6.8
		C203.9,350.4,206.9,353.5,206.9,357.2z"/>
	<path fill="#A8A8A7" d="M224.8,357c0,3.7-3,6.8-6.7,6.8c-3.7,0-6.8-3-6.8-6.8c0-3.7,3-6.8,6.8-6.8
		C221.7,350.2,224.8,353.3,224.8,357z"/>
	<path fill="#A8A8A7" d="M242.6,357c0,3.7-3,6.8-6.8,6.8s-6.8-3-6.8-6.8c0-3.7,3-6.8,6.8-6.8S242.6,353.3,242.6,357z"/>
	<path fill="#A8A8A7" d="M260.5,357.1c0,3.7-3,6.7-6.7,6.7c-3.7,0-6.8-3-6.8-6.7c0-3.7,3-6.8,6.8-6.8
		C257.4,350.3,260.5,353.4,260.5,357.1z"/>
	<path fill="#A8A8A7" d="M278.3,357.1c0,3.7-3,6.8-6.7,6.8c-3.7,0-6.8-3-6.8-6.8c0-3.7,3-6.8,6.8-6.8
		C275.3,350.3,278.3,353.4,278.3,357.1z"/>
	<path fill="#A8A8A7" d="M296.2,356.9c0,3.7-3,6.8-6.8,6.8c-3.7,0-6.8-3-6.8-6.8c0-3.7,3-6.7,6.8-6.7
		C293.1,350.2,296.2,353.2,296.2,356.9z"/>
	<path fill="#A8A8A7" d="M456.8,357c0,3.7-3,6.8-6.7,6.8c-3.7,0-6.8-3-6.8-6.8c0-3.7,3-6.8,6.8-6.8
		C453.7,350.2,456.8,353.2,456.8,357z"/>
	<path fill="#A8A8A7" d="M492.5,357.2c0,3.7-3,6.8-6.7,6.8c-3.7,0-6.8-3-6.8-6.8c0-3.7,3-6.8,6.8-6.8
		C489.4,350.4,492.5,353.4,492.5,357.2z"/>
	<path fill="#A8A8A7" d="M510.3,357c0,3.7-3,6.8-6.8,6.8c-3.7,0-6.7-3-6.7-6.8c0-3.7,3-6.8,6.7-6.8
		C507.3,350.2,510.3,353.3,510.3,357z"/>
	<path fill="#A8A8A7" d="M528.2,357c0,3.7-3,6.8-6.8,6.8c-3.7,0-6.8-3-6.8-6.8c0-3.7,3-6.8,6.8-6.8
		C525.1,350.2,528.2,353.3,528.2,357z"/>
	<path fill="#A8A8A7" d="M546,357.1c0,3.7-3,6.8-6.7,6.8c-3.7,0-6.8-3-6.8-6.8c0-3.7,3-6.8,6.8-6.8C543,350.3,546,353.3,546,357.1z"
		/>
	<path fill="#A8A8A7" d="M563.8,357.1c0,3.7-3,6.8-6.8,6.8c-3.7,0-6.8-3-6.8-6.8c0-3.7,3-6.7,6.8-6.7
		C560.8,350.3,563.8,353.3,563.8,357.1z"/>
	<path fill="#A8A8A7" d="M581.7,356.9c0,3.7-3,6.8-6.8,6.8c-3.7,0-6.8-3-6.8-6.8c0-3.7,3-6.7,6.8-6.7
		C578.7,350.2,581.7,353.2,581.7,356.9z"/>
	<path fill="#A8A8A7" d="M599.5,356.9c0,3.7-3,6.8-6.7,6.8c-3.7,0-6.8-3-6.8-6.8c0-3.7,3-6.8,6.8-6.8
		C596.5,350.2,599.5,353.2,599.5,356.9z"/>
	<path fill="#A8A8A7" d="M617.4,357.4c0,3.7-3,6.8-6.8,6.8c-3.7,0-6.7-3-6.7-6.8c0-3.7,3-6.8,6.7-6.8
		C614.4,350.6,617.4,353.6,617.4,357.4z"/>
	<path fill="#A8A8A7" d="M635.2,357.4c0,3.7-3,6.8-6.8,6.8c-3.7,0-6.8-3-6.8-6.8c0-3.7,3-6.7,6.8-6.7
		C632.2,350.6,635.2,353.6,635.2,357.4z"/>
	<path fill="#A8A8A7" d="M653.1,357.2c0,3.7-3,6.8-6.8,6.8c-3.7,0-6.8-3-6.8-6.8c0-3.7,3-6.7,6.8-6.7
		C650,350.5,653.1,353.5,653.1,357.2z"/>
	<path fill="#A8A8A7" d="M670.9,357.2c0,3.7-3,6.8-6.8,6.8c-3.7,0-6.8-3-6.8-6.8c0-3.7,3-6.7,6.8-6.7
		C667.9,350.5,670.9,353.5,670.9,357.2z"/>
	<path fill="#A8A8A7" d="M688.8,357.3c0,3.7-3,6.8-6.8,6.8c-3.7,0-6.8-3-6.8-6.8c0-3.7,3-6.8,6.8-6.8
		C685.7,350.5,688.8,353.6,688.8,357.3z"/>
	<path fill="#A8A8A7" d="M706.6,357.3c0,3.7-3,6.8-6.7,6.8c-3.7,0-6.8-3-6.8-6.8c0-3.7,3-6.8,6.8-6.8
		C703.6,350.6,706.6,353.6,706.6,357.3z"/>
	<path fill="#A8A8A7" d="M724.4,357.1c0,3.7-3,6.8-6.8,6.8c-3.7,0-6.8-3-6.8-6.8c0-3.7,3-6.8,6.8-6.8
		C721.4,350.4,724.4,353.4,724.4,357.1z"/>
	<path fill="#A8A8A7" d="M742.3,357.1c0,3.7-3,6.8-6.8,6.8c-3.7,0-6.8-3-6.8-6.8c0-3.7,3-6.8,6.8-6.8
		C739.3,350.4,742.3,353.4,742.3,357.1z"/>
	<path fill="#A8A8A7" d="M760.1,357.3c0,3.7-3,6.8-6.7,6.8c-3.7,0-6.8-3-6.8-6.8c0-3.7,3-6.8,6.8-6.8
		C757.1,350.6,760.1,353.6,760.1,357.3z"/>
	<path fill="#A8A8A7" d="M778,357.3c0,3.7-3,6.8-6.8,6.8c-3.7,0-6.8-3-6.8-6.8c0-3.7,3-6.8,6.8-6.8C775,350.6,778,353.6,778,357.3z"
		/>
	<path fill="#A8A8A7" d="M795.8,357.2c0,3.7-3,6.8-6.8,6.8c-3.7,0-6.8-3-6.8-6.8c0-3.7,3-6.7,6.8-6.7
		C792.8,350.4,795.8,353.4,795.8,357.2z"/>
	<path fill="#A8A8A7" d="M813.7,357.2c0,3.7-3,6.8-6.7,6.8c-3.7,0-6.8-3-6.8-6.8c0-3.7,3-6.8,6.8-6.8
		C810.6,350.4,813.7,353.5,813.7,357.2z"/>
	<path fill="#A8A8A7" d="M831.5,357.3c0,3.7-3,6.8-6.7,6.8c-3.7,0-6.8-3-6.8-6.8c0-3.7,3-6.8,6.8-6.8
		C828.5,350.5,831.5,353.5,831.5,357.3z"/>
	<path fill="#A8A8A7" d="M849.4,357.3c0,3.7-3,6.8-6.8,6.8c-3.7,0-6.8-3-6.8-6.8c0-3.7,3-6.8,6.8-6.8
		C846.3,350.5,849.4,353.5,849.4,357.3z"/>
	<circle fill="#A8A8A7" cx="860.5" cy="357.1" r="6.8"/>
	<path fill="#A8A8A7" d="M99.9,376.3c0,3.7-3,6.7-6.8,6.7c-3.7,0-6.8-3-6.8-6.7c0-3.7,3-6.8,6.8-6.8
		C96.8,369.5,99.9,372.5,99.9,376.3z"/>
	<path fill="#A8A8A7" d="M117.7,376.4c0,3.7-3,6.7-6.8,6.7c-3.7,0-6.8-3-6.8-6.7c0-3.7,3-6.8,6.8-6.8
		C114.7,369.6,117.7,372.6,117.7,376.4z"/>
	<path fill="#A8A8A7" d="M135.5,376.4c0,3.7-3,6.8-6.7,6.8c-3.7,0-6.8-3-6.8-6.8c0-3.7,3-6.8,6.8-6.8
		C132.5,369.6,135.5,372.6,135.5,376.4z"/>
	<path fill="#A8A8A7" d="M153.4,376.2c0,3.7-3,6.8-6.8,6.8c-3.7,0-6.8-3-6.8-6.8c0-3.7,3-6.7,6.8-6.7
		C150.4,369.4,153.4,372.5,153.4,376.2z"/>
	<path fill="#A8A8A7" d="M171.2,376.2c0,3.7-3,6.8-6.7,6.8c-3.7,0-6.8-3-6.8-6.8c0-3.7,3-6.8,6.8-6.8
		C168.2,369.4,171.2,372.5,171.2,376.2z"/>
	<path fill="#A8A8A7" d="M189.1,376.4c0,3.7-3,6.8-6.8,6.8c-3.7,0-6.8-3-6.8-6.8c0-3.7,3-6.7,6.8-6.7
		C186.1,369.7,189.1,372.7,189.1,376.4z"/>
	<path fill="#A8A8A7" d="M206.9,376.4c0,3.7-3,6.8-6.7,6.8c-3.7,0-6.8-3-6.8-6.8c0-3.7,3-6.7,6.8-6.7
		C203.9,369.7,206.9,372.7,206.9,376.4z"/>
	<path fill="#A8A8A7" d="M224.8,376.2c0,3.7-3,6.8-6.7,6.8c-3.7,0-6.8-3-6.8-6.8c0-3.7,3-6.7,6.8-6.7
		C221.7,369.5,224.8,372.5,224.8,376.2z"/>
	<path fill="#A8A8A7" d="M242.6,376.2c0,3.7-3,6.8-6.8,6.8s-6.8-3-6.8-6.8c0-3.7,3-6.8,6.8-6.8S242.6,372.5,242.6,376.2z"/>
	<path fill="#A8A8A7" d="M260.5,376.3c0,3.7-3,6.8-6.7,6.8c-3.7,0-6.8-3-6.8-6.8c0-3.7,3-6.7,6.8-6.7
		C257.4,369.6,260.5,372.6,260.5,376.3z"/>
	<path fill="#A8A8A7" d="M456.8,376.2c0,3.7-3,6.8-6.7,6.8c-3.7,0-6.8-3-6.8-6.8c0-3.7,3-6.7,6.8-6.7
		C453.7,369.4,456.8,372.5,456.8,376.2z"/>
	<path fill="#A8A8A7" d="M474.6,376.4c0,3.7-3,6.8-6.8,6.8c-3.7,0-6.8-3-6.8-6.8c0-3.7,3-6.8,6.8-6.8
		C471.6,369.6,474.6,372.7,474.6,376.4z"/>
	<path fill="#A8A8A7" d="M492.5,376.4c0,3.7-3,6.8-6.7,6.8c-3.7,0-6.8-3-6.8-6.8s3-6.7,6.8-6.7C489.4,369.6,492.5,372.7,492.5,376.4
		z"/>
	<path fill="#A8A8A7" d="M510.3,376.2c0,3.7-3,6.8-6.8,6.8c-3.7,0-6.7-3-6.7-6.8c0-3.7,3-6.7,6.7-6.7
		C507.3,369.5,510.3,372.5,510.3,376.2z"/>
	<path fill="#A8A8A7" d="M528.2,376.2c0,3.7-3,6.8-6.8,6.8c-3.7,0-6.8-3-6.8-6.8c0-3.7,3-6.7,6.8-6.7
		C525.1,369.5,528.2,372.5,528.2,376.2z"/>
	<path fill="#A8A8A7" d="M546,376.3c0,3.7-3,6.8-6.7,6.8c-3.7,0-6.8-3-6.8-6.8c0-3.7,3-6.8,6.8-6.8C543,369.5,546,372.6,546,376.3z"
		/>
	<circle fill="#A8A8A7" cx="557.1" cy="376.3" r="6.8"/>
	<path fill="#A8A8A7" d="M581.7,376.2c0,3.7-3,6.8-6.8,6.8c-3.7,0-6.8-3-6.8-6.8c0-3.7,3-6.8,6.8-6.8
		C578.7,369.4,581.7,372.4,581.7,376.2z"/>
	<path fill="#A8A8A7" d="M599.5,376.2c0,3.7-3,6.8-6.7,6.8c-3.7,0-6.8-3-6.8-6.8c0-3.7,3-6.8,6.8-6.8
		C596.5,369.4,599.5,372.4,599.5,376.2z"/>
	<path fill="#A8A8A7" d="M617.4,376.6c0,3.7-3,6.8-6.8,6.8c-3.7,0-6.7-3-6.7-6.8c0-3.7,3-6.8,6.7-6.8
		C614.4,369.8,617.4,372.9,617.4,376.6z"/>
	<path fill="#A8A8A7" d="M635.2,376.6c0,3.7-3,6.8-6.8,6.8c-3.7,0-6.8-3-6.8-6.8c0-3.7,3-6.8,6.8-6.8
		C632.2,369.8,635.2,372.9,635.2,376.6z"/>
	<path fill="#A8A8A7" d="M653.1,376.5c0,3.7-3,6.8-6.8,6.8c-3.7,0-6.8-3-6.8-6.8c0-3.7,3-6.7,6.8-6.7
		C650,369.7,653.1,372.7,653.1,376.5z"/>
	<path fill="#A8A8A7" d="M670.9,376.5c0,3.7-3,6.8-6.8,6.8c-3.7,0-6.8-3-6.8-6.8c0-3.7,3-6.8,6.8-6.8
		C667.9,369.7,670.9,372.7,670.9,376.5z"/>
	<path fill="#A8A8A7" d="M688.8,376.5c0,3.7-3,6.8-6.8,6.8c-3.7,0-6.8-3-6.8-6.8c0-3.7,3-6.7,6.8-6.7
		C685.7,369.8,688.8,372.8,688.8,376.5z"/>
	<path fill="#A8A8A7" d="M706.6,376.5c0,3.7-3,6.8-6.7,6.8c-3.7,0-6.8-3-6.8-6.8c0-3.7,3-6.8,6.8-6.8
		C703.6,369.8,706.6,372.8,706.6,376.5z"/>
	<path fill="#A8A8A7" d="M724.4,376.3c0,3.7-3,6.8-6.8,6.8c-3.7,0-6.8-3-6.8-6.8c0-3.7,3-6.8,6.8-6.8
		C721.4,369.6,724.4,372.6,724.4,376.3z"/>
	<path fill="#A8A8A7" d="M742.3,376.4c0,3.7-3,6.8-6.8,6.8c-3.7,0-6.8-3-6.8-6.8c0-3.7,3-6.8,6.8-6.8
		C739.3,369.6,742.3,372.6,742.3,376.4z"/>
	<path fill="#A8A8A7" d="M760.1,376.5c0,3.7-3,6.8-6.7,6.8c-3.7,0-6.8-3-6.8-6.8c0-3.7,3-6.7,6.8-6.7
		C757.1,369.8,760.1,372.8,760.1,376.5z"/>
	<path fill="#A8A8A7" d="M778,376.6c0,3.7-3,6.8-6.8,6.8c-3.7,0-6.8-3-6.8-6.8c0-3.7,3-6.8,6.8-6.8C775,369.8,778,372.8,778,376.6z"
		/>
	<path fill="#A8A8A7" d="M795.8,376.4c0,3.7-3,6.8-6.8,6.8c-3.7,0-6.8-3-6.8-6.8c0-3.7,3-6.8,6.8-6.8
		C792.8,369.7,795.8,372.7,795.8,376.4z"/>
	<path fill="#A8A8A7" d="M813.7,376.4c0,3.7-3,6.8-6.7,6.8c-3.7,0-6.8-3-6.8-6.8c0-3.7,3-6.8,6.8-6.8
		C810.6,369.7,813.7,372.7,813.7,376.4z"/>
	<path fill="#A8A8A7" d="M831.5,376.5c0,3.7-3,6.8-6.7,6.8c-3.7,0-6.8-3-6.8-6.8c0-3.7,3-6.7,6.8-6.7
		C828.5,369.7,831.5,372.8,831.5,376.5z"/>
	<path fill="#A8A8A7" d="M849.4,376.5c0,3.7-3,6.8-6.8,6.8c-3.7,0-6.8-3-6.8-6.8c0-3.7,3-6.8,6.8-6.8
		C846.3,369.8,849.4,372.8,849.4,376.5z"/>
	<path fill="#A8A8A7" d="M867.2,376.3c0,3.7-3,6.7-6.8,6.7c-3.7,0-6.8-3-6.8-6.7c0-3.7,3-6.8,6.8-6.8
		C864.2,369.5,867.2,372.6,867.2,376.3z"/>
	<path fill="#A8A8A7" d="M885.1,376.3c0,3.7-3,6.8-6.8,6.8c-3.7,0-6.7-3-6.7-6.8c0-3.7,3-6.8,6.7-6.8
		C882,369.5,885.1,372.6,885.1,376.3z"/>
	<path fill="#A8A8A7" d="M82,395.5c0,3.7-3,6.8-6.8,6.8c-3.7,0-6.8-3-6.8-6.8c0-3.7,3-6.8,6.8-6.8C79,388.7,82,391.8,82,395.5z"/>
	<path fill="#A8A8A7" d="M99.9,395.5c0,3.7-3,6.8-6.8,6.8c-3.7,0-6.8-3-6.8-6.8c0-3.7,3-6.8,6.8-6.8
		C96.8,388.7,99.9,391.8,99.9,395.5z"/>
	<path fill="#A8A8A7" d="M117.7,395.6c0,3.7-3,6.8-6.8,6.8c-3.7,0-6.8-3-6.8-6.8c0-3.7,3-6.8,6.8-6.8
		C114.7,388.8,117.7,391.9,117.7,395.6z"/>
	<path fill="#A8A8A7" d="M135.5,395.6c0,3.7-3,6.7-6.8,6.7c-3.7,0-6.8-3-6.8-6.7c0-3.7,3-6.8,6.8-6.8
		C132.5,388.8,135.5,391.9,135.5,395.6z"/>
	<path fill="#A8A8A7" d="M153.4,395.4c0,3.7-3,6.8-6.8,6.8c-3.7,0-6.8-3-6.8-6.8c0-3.7,3-6.8,6.8-6.8
		C150.4,388.7,153.4,391.7,153.4,395.4z"/>
	<path fill="#A8A8A7" d="M171.2,395.4c0,3.7-3,6.8-6.8,6.8c-3.7,0-6.7-3-6.7-6.8c0-3.7,3-6.8,6.7-6.8
		C168.2,388.7,171.2,391.7,171.2,395.4z"/>
	<path fill="#A8A8A7" d="M189.1,395.6c0,3.7-3,6.8-6.8,6.8c-3.7,0-6.8-3-6.8-6.8c0-3.7,3-6.7,6.8-6.7
		C186.1,388.9,189.1,391.9,189.1,395.6z"/>
	<path fill="#A8A8A7" d="M206.9,395.7c0,3.7-3,6.8-6.8,6.8c-3.7,0-6.8-3-6.8-6.8c0-3.7,3-6.8,6.8-6.8
		C203.9,388.9,206.9,391.9,206.9,395.7z"/>
	<path fill="#A8A8A7" d="M224.8,395.5c0,3.7-3,6.8-6.8,6.8c-3.7,0-6.7-3-6.7-6.8c0-3.7,3-6.7,6.7-6.7
		C221.7,388.7,224.8,391.7,224.8,395.5z"/>
	<path fill="#A8A8A7" d="M242.6,395.5c0,3.7-3,6.8-6.8,6.8c-3.7,0-6.8-3-6.8-6.8c0-3.7,3-6.8,6.8-6.8
		C239.6,388.7,242.6,391.7,242.6,395.5z"/>
	<path fill="#A8A8A7" d="M456.8,395.4c0,3.7-3,6.8-6.7,6.8c-3.7,0-6.8-3-6.8-6.8c0-3.7,3-6.8,6.8-6.8
		C453.7,388.7,456.8,391.7,456.8,395.4z"/>
	<path fill="#A8A8A7" d="M474.6,395.6c0,3.7-3,6.8-6.8,6.8c-3.7,0-6.8-3-6.8-6.8c0-3.7,3-6.8,6.8-6.8
		C471.6,388.9,474.6,391.9,474.6,395.6z"/>
	<path fill="#A8A8A7" d="M492.5,395.6c0,3.7-3,6.8-6.8,6.8c-3.7,0-6.8-3-6.8-6.8c0-3.7,3-6.7,6.8-6.7
		C489.4,388.9,492.5,391.9,492.5,395.6z"/>
	<path fill="#A8A8A7" d="M510.3,395.4c0,3.7-3,6.8-6.8,6.8c-3.7,0-6.8-3-6.8-6.8c0-3.7,3-6.8,6.8-6.8
		C507.3,388.7,510.3,391.7,510.3,395.4z"/>
	<path fill="#A8A8A7" d="M528.1,395.4c0,3.7-3,6.8-6.7,6.8c-3.7,0-6.7-3-6.7-6.8c0-3.7,3-6.7,6.7-6.7
		C525.1,388.7,528.1,391.7,528.1,395.4z"/>
	<path fill="#A8A8A7" d="M546,395.5c0,3.7-3,6.8-6.8,6.8c-3.7,0-6.8-3-6.8-6.8c0-3.7,3-6.7,6.8-6.7C543,388.8,546,391.8,546,395.5z"
		/>
	<path fill="#A8A8A7" d="M563.8,395.5c0,3.7-3,6.8-6.8,6.8c-3.7,0-6.8-3-6.8-6.8c0-3.7,3-6.7,6.8-6.7
		C560.8,388.8,563.8,391.8,563.8,395.5z"/>
	<path fill="#A8A8A7" d="M599.5,395.4c0,3.7-3,6.8-6.8,6.8c-3.7,0-6.7-3-6.7-6.8c0-3.7,3-6.8,6.7-6.8
		C596.5,388.6,599.5,391.7,599.5,395.4z"/>
	<path fill="#A8A8A7" d="M617.4,395.8c0,3.7-3,6.7-6.8,6.7c-3.7,0-6.8-3-6.8-6.7c0-3.7,3-6.7,6.8-6.7
		C614.4,389.1,617.4,392.1,617.4,395.8z"/>
	<path fill="#A8A8A7" d="M635.2,395.8c0,3.7-3,6.8-6.8,6.8c-3.7,0-6.8-3-6.8-6.8c0-3.7,3-6.8,6.8-6.8
		C632.2,389.1,635.2,392.1,635.2,395.8z"/>
	<path fill="#A8A8A7" d="M653.1,395.7c0,3.7-3,6.8-6.8,6.8c-3.7,0-6.8-3-6.8-6.8c0-3.7,3-6.7,6.8-6.7
		C650,388.9,653.1,392,653.1,395.7z"/>
	<path fill="#A8A8A7" d="M670.9,395.7c0,3.7-3,6.8-6.8,6.8c-3.7,0-6.8-3-6.8-6.8c0-3.7,3-6.7,6.8-6.7
		C667.9,388.9,670.9,392,670.9,395.7z"/>
	<path fill="#A8A8A7" d="M688.8,395.8c0,3.7-3,6.8-6.8,6.8c-3.7,0-6.8-3-6.8-6.8c0-3.7,3-6.8,6.8-6.8
		C685.7,389,688.8,392,688.8,395.8z"/>
	<path fill="#A8A8A7" d="M706.6,395.8c0,3.7-3,6.8-6.8,6.8c-3.7,0-6.7-3-6.7-6.8c0-3.7,3-6.8,6.7-6.8
		C703.6,389,706.6,392,706.6,395.8z"/>
	<path fill="#A8A8A7" d="M724.4,395.6c0,3.7-3,6.8-6.8,6.8c-3.7,0-6.8-3-6.8-6.8c0-3.7,3-6.8,6.8-6.8
		C721.4,388.8,724.4,391.8,724.4,395.6z"/>
	<path fill="#A8A8A7" d="M742.3,395.6c0,3.7-3,6.8-6.8,6.8c-3.7,0-6.8-3-6.8-6.8c0-3.7,3-6.8,6.8-6.8
		C739.3,388.8,742.3,391.9,742.3,395.6z"/>
	<path fill="#A8A8A7" d="M760.1,395.8c0,3.7-3,6.8-6.8,6.8c-3.7,0-6.8-3-6.8-6.8c0-3.7,3-6.8,6.8-6.8
		C757.1,389,760.1,392.1,760.1,395.8z"/>
	<path fill="#A8A8A7" d="M778,395.8c0,3.7-3,6.8-6.8,6.8c-3.7,0-6.8-3-6.8-6.8c0-3.7,3-6.8,6.8-6.8C775,389,778,392.1,778,395.8z"/>
	<path fill="#A8A8A7" d="M795.8,395.6c0,3.7-3,6.8-6.8,6.8c-3.7,0-6.8-3-6.8-6.8c0-3.7,3-6.7,6.8-6.7
		C792.8,388.9,795.8,391.9,795.8,395.6z"/>
	<path fill="#A8A8A7" d="M813.7,395.6c0,3.7-3,6.8-6.8,6.8c-3.7,0-6.8-3-6.8-6.8c0-3.7,3-6.8,6.8-6.8
		C810.6,388.9,813.7,391.9,813.7,395.6z"/>
	<path fill="#A8A8A7" d="M831.5,395.7c0,3.7-3,6.7-6.7,6.7c-3.7,0-6.8-3-6.8-6.7c0-3.7,3-6.8,6.8-6.8
		C828.5,389,831.5,392,831.5,395.7z"/>
	<path fill="#A8A8A7" d="M849.4,395.7c0,3.7-3,6.8-6.8,6.8c-3.7,0-6.8-3-6.8-6.8c0-3.7,3-6.8,6.8-6.8
		C846.3,389,849.4,392,849.4,395.7z"/>
	<path fill="#A8A8A7" d="M867.2,395.5c0,3.7-3,6.8-6.8,6.8c-3.7,0-6.8-3-6.8-6.8c0-3.7,3-6.7,6.8-6.7
		C864.2,388.8,867.2,391.8,867.2,395.5z"/>
	<path fill="#A8A8A7" d="M82,414.7c0,3.7-3,6.8-6.8,6.8c-3.7,0-6.8-3-6.8-6.8c0-3.7,3-6.7,6.8-6.7C79,408,82,411,82,414.7z"/>
	<path fill="#A8A8A7" d="M99.9,414.7c0,3.7-3,6.8-6.8,6.8c-3.7,0-6.8-3-6.8-6.8c0-3.7,3-6.7,6.8-6.7C96.8,408,99.9,411,99.9,414.7z"
		/>
	<path fill="#A8A8A7" d="M117.7,414.8c0,3.7-3,6.8-6.8,6.8c-3.7,0-6.8-3-6.8-6.8c0-3.7,3-6.7,6.8-6.7
		C114.7,408.1,117.7,411.1,117.7,414.8z"/>
	<path fill="#A8A8A7" d="M135.5,414.8c0,3.7-3,6.8-6.7,6.8c-3.7,0-6.8-3-6.8-6.8c0-3.7,3-6.7,6.8-6.7
		C132.5,408.1,135.5,411.1,135.5,414.8z"/>
	<path fill="#A8A8A7" d="M153.4,414.7c0,3.7-3,6.8-6.8,6.8c-3.7,0-6.8-3-6.8-6.8c0-3.7,3-6.7,6.8-6.7
		C150.4,407.9,153.4,410.9,153.4,414.7z"/>
	<path fill="#A8A8A7" d="M171.2,414.7c0,3.7-3,6.7-6.7,6.7c-3.7,0-6.8-3-6.8-6.7c0-3.7,3-6.8,6.8-6.8
		C168.2,407.9,171.2,410.9,171.2,414.7z"/>
	<path fill="#A8A8A7" d="M189.1,414.9c0,3.7-3,6.8-6.8,6.8c-3.7,0-6.8-3-6.8-6.8c0-3.7,3-6.8,6.8-6.8
		C186.1,408.1,189.1,411.1,189.1,414.9z"/>
	<path fill="#A8A8A7" d="M206.9,414.9c0,3.7-3,6.8-6.7,6.8c-3.7,0-6.8-3-6.8-6.8c0-3.7,3-6.8,6.8-6.8
		C203.9,408.1,206.9,411.2,206.9,414.9z"/>
	<path fill="#A8A8A7" d="M224.8,414.7c0,3.7-3,6.8-6.7,6.8c-3.7,0-6.8-3-6.8-6.8c0-3.7,3-6.8,6.8-6.8
		C221.7,407.9,224.8,411,224.8,414.7z"/>
	<path fill="#A8A8A7" d="M438.9,414.6c0,3.7-3,6.8-6.8,6.8c-3.7,0-6.8-3-6.8-6.8c0-3.7,3-6.8,6.8-6.8
		C435.9,407.9,438.9,410.9,438.9,414.6z"/>
	<path fill="#A8A8A7" d="M456.8,414.7c0,3.7-3,6.8-6.7,6.8c-3.7,0-6.8-3-6.8-6.8c0-3.7,3-6.8,6.8-6.8
		C453.7,407.9,456.8,410.9,456.8,414.7z"/>
	<path fill="#A8A8A7" d="M528.2,414.7c0,3.7-3,6.8-6.8,6.8c-3.7,0-6.8-3-6.8-6.8c0-3.7,3-6.8,6.8-6.8
		C525.1,407.9,528.2,411,528.2,414.7z"/>
	<path fill="#A8A8A7" d="M546,414.7c0,3.7-3,6.8-6.7,6.8c-3.7,0-6.8-3-6.8-6.8c0-3.7,3-6.8,6.8-6.8C543,408,546,411,546,414.7z"/>
	<circle fill="#A8A8A7" cx="557.1" cy="414.7" r="6.8"/>
	<path fill="#A8A8A7" d="M581.7,414.6c0,3.7-3,6.8-6.8,6.8c-3.7,0-6.8-3-6.8-6.8c0-3.7,3-6.8,6.8-6.8
		C578.7,407.9,581.7,410.9,581.7,414.6z"/>
	<path fill="#A8A8A7" d="M599.5,414.6c0,3.7-3,6.8-6.7,6.8c-3.7,0-6.8-3-6.8-6.8c0-3.7,3-6.8,6.8-6.8
		C596.5,407.9,599.5,410.9,599.5,414.6z"/>
	<path fill="#A8A8A7" d="M617.4,415c0,3.7-3,6.8-6.8,6.8c-3.7,0-6.7-3-6.7-6.8c0-3.7,3-6.8,6.7-6.8
		C614.4,408.3,617.4,411.3,617.4,415z"/>
	<path fill="#A8A8A7" d="M635.2,415c0,3.7-3,6.8-6.8,6.8c-3.7,0-6.8-3-6.8-6.8c0-3.7,3-6.8,6.8-6.8
		C632.2,408.3,635.2,411.3,635.2,415z"/>
	<path fill="#A8A8A7" d="M653.1,414.9c0,3.7-3,6.8-6.8,6.8c-3.7,0-6.8-3-6.8-6.8c0-3.7,3-6.8,6.8-6.8
		C650,408.2,653.1,411.2,653.1,414.9z"/>
	<path fill="#A8A8A7" d="M670.9,414.9c0,3.7-3,6.8-6.8,6.8c-3.7,0-6.8-3-6.8-6.8c0-3.7,3-6.7,6.8-6.7
		C667.9,408.2,670.9,411.2,670.9,414.9z"/>
	<path fill="#A8A8A7" d="M688.8,415c0,3.7-3,6.8-6.8,6.8c-3.7,0-6.8-3-6.8-6.8c0-3.7,3-6.8,6.8-6.8
		C685.7,408.2,688.8,411.3,688.8,415z"/>
	<path fill="#A8A8A7" d="M706.6,415c0,3.7-3,6.8-6.7,6.8c-3.7,0-6.8-3-6.8-6.8c0-3.7,3-6.8,6.8-6.8
		C703.6,408.2,706.6,411.3,706.6,415z"/>
	<path fill="#A8A8A7" d="M724.4,414.8c0,3.7-3,6.8-6.8,6.8c-3.7,0-6.8-3-6.8-6.8c0-3.7,3-6.8,6.8-6.8
		C721.4,408.1,724.4,411.1,724.4,414.8z"/>
	<path fill="#A8A8A7" d="M742.3,414.8c0,3.7-3,6.8-6.8,6.8c-3.7,0-6.8-3-6.8-6.8c0-3.7,3-6.8,6.8-6.8
		C739.3,408.1,742.3,411.1,742.3,414.8z"/>
	<path fill="#A8A8A7" d="M760.1,415c0,3.7-3,6.8-6.7,6.8c-3.7,0-6.8-3-6.8-6.8c0-3.7,3-6.7,6.8-6.7
		C757.1,408.3,760.1,411.3,760.1,415z"/>
	<path fill="#A8A8A7" d="M778,415c0,3.7-3,6.8-6.8,6.8c-3.7,0-6.8-3-6.8-6.8c0-3.7,3-6.8,6.8-6.8C775,408.3,778,411.3,778,415z"/>
	<path fill="#A8A8A7" d="M795.8,414.9c0,3.7-3,6.8-6.8,6.8c-3.7,0-6.8-3-6.8-6.8c0-3.7,3-6.8,6.8-6.8
		C792.8,408.1,795.8,411.1,795.8,414.9z"/>
	<path fill="#A8A8A7" d="M813.7,414.9c0,3.7-3,6.8-6.7,6.8c-3.7,0-6.8-3-6.8-6.8c0-3.7,3-6.7,6.8-6.7
		C810.6,408.1,813.7,411.1,813.7,414.9z"/>
	<path fill="#A8A8A7" d="M831.5,415c0,3.7-3,6.8-6.7,6.8c-3.7,0-6.8-3-6.8-6.8c0-3.7,3-6.7,6.8-6.7
		C828.5,408.2,831.5,411.2,831.5,415z"/>
	<path fill="#A8A8A7" d="M849.4,415c0,3.7-3,6.7-6.8,6.7c-3.7,0-6.8-3-6.8-6.7c0-3.7,3-6.8,6.8-6.8
		C846.3,408.2,849.4,411.2,849.4,415z"/>
	<path fill="#A8A8A7" d="M867.2,414.8c0,3.7-3,6.8-6.8,6.8c-3.7,0-6.8-3-6.8-6.8c0-3.7,3-6.8,6.8-6.8
		C864.2,408,867.2,411,867.2,414.8z"/>
	<path fill="#A8A8A7" d="M82,433.9c0,3.7-3,6.8-6.8,6.8c-3.7,0-6.8-3-6.8-6.8c0-3.7,3-6.7,6.8-6.7C79,427.2,82,430.2,82,433.9z"/>
	<path fill="#A8A8A7" d="M99.9,434c0,3.7-3,6.8-6.8,6.8c-3.7,0-6.8-3-6.8-6.8c0-3.7,3-6.8,6.8-6.8C96.8,427.2,99.9,430.2,99.9,434z"
		/>
	<circle fill="#A8A8A7" cx="110.9" cy="434.1" r="6.8"/>
	<path fill="#A8A8A7" d="M135.5,434.1c0,3.7-3,6.8-6.8,6.8c-3.7,0-6.8-3-6.8-6.8c0-3.7,3-6.8,6.8-6.8
		C132.5,427.3,135.5,430.3,135.5,434.1z"/>
	<path fill="#A8A8A7" d="M153.4,433.9c0,3.7-3,6.8-6.8,6.8c-3.7,0-6.8-3-6.8-6.8c0-3.7,3-6.7,6.8-6.7
		C150.4,427.1,153.4,430.2,153.4,433.9z"/>
	<path fill="#A8A8A7" d="M171.2,433.9c0,3.7-3,6.8-6.8,6.8c-3.7,0-6.7-3-6.7-6.8c0-3.7,3-6.8,6.7-6.8
		C168.2,427.1,171.2,430.2,171.2,433.9z"/>
	<path fill="#A8A8A7" d="M189.1,434.1c0,3.7-3,6.8-6.8,6.8c-3.7,0-6.8-3-6.8-6.8c0-3.7,3-6.7,6.8-6.7
		C186.1,427.4,189.1,430.4,189.1,434.1z"/>
	<path fill="#A8A8A7" d="M206.9,434.1c0,3.7-3,6.7-6.8,6.7c-3.7,0-6.8-3-6.8-6.7c0-3.7,3-6.8,6.8-6.8
		C203.9,427.4,206.9,430.4,206.9,434.1z"/>
	<path fill="#A8A8A7" d="M456.8,433.9c0,3.7-3,6.8-6.7,6.8c-3.7,0-6.8-3-6.8-6.8c0-3.7,3-6.7,6.8-6.7
		C453.7,427.1,456.8,430.2,456.8,433.9z"/>
	<path fill="#A8A8A7" d="M474.6,434.1c0,3.7-3,6.8-6.8,6.8c-3.7,0-6.8-3-6.8-6.8c0-3.7,3-6.8,6.8-6.8
		C471.6,427.3,474.6,430.4,474.6,434.1z"/>
	<path fill="#A8A8A7" d="M492.5,434.1c0,3.7-3,6.8-6.8,6.8c-3.7,0-6.8-3-6.8-6.8c0-3.7,3-6.8,6.8-6.8
		C489.4,427.3,492.5,430.4,492.5,434.1z"/>
	<path fill="#A8A8A7" d="M581.7,433.9c0,3.7-3,6.8-6.7,6.8c-3.7,0-6.8-3-6.8-6.8c0-3.7,3-6.8,6.8-6.8
		C578.7,427.1,581.7,430.1,581.7,433.9z"/>
	<path fill="#A8A8A7" d="M599.5,433.8c0,3.7-3,6.8-6.8,6.8c-3.7,0-6.7-3-6.7-6.8c0-3.7,3-6.8,6.7-6.8
		C596.5,427.1,599.5,430.1,599.5,433.8z"/>
	<path fill="#A8A8A7" d="M617.4,434.3c0,3.7-3,6.8-6.8,6.8c-3.7,0-6.8-3-6.8-6.8c0-3.7,3-6.8,6.8-6.8
		C614.4,427.5,617.4,430.5,617.4,434.3z"/>
	<path fill="#A8A8A7" d="M635.2,434.3c0,3.7-3,6.8-6.8,6.8c-3.7,0-6.8-3-6.8-6.8c0-3.7,3-6.8,6.8-6.8
		C632.2,427.5,635.2,430.6,635.2,434.3z"/>
	<path fill="#A8A8A7" d="M653.1,434.2c0,3.7-3,6.8-6.8,6.8c-3.7,0-6.8-3-6.8-6.8c0-3.7,3-6.8,6.8-6.8
		C650,427.4,653.1,430.4,653.1,434.2z"/>
	<path fill="#A8A8A7" d="M670.9,434.2c0,3.7-3,6.8-6.8,6.8c-3.7,0-6.8-3-6.8-6.8c0-3.7,3-6.7,6.8-6.7
		C667.9,427.4,670.9,430.4,670.9,434.2z"/>
	<path fill="#A8A8A7" d="M688.8,434.2c0,3.7-3,6.8-6.8,6.8c-3.7,0-6.8-3-6.8-6.8c0-3.7,3-6.8,6.8-6.8
		C685.7,427.5,688.8,430.5,688.8,434.2z"/>
	<path fill="#A8A8A7" d="M706.6,434.2c0,3.7-3,6.8-6.8,6.8c-3.7,0-6.7-3-6.7-6.8c0-3.7,3-6.7,6.7-6.7
		C703.6,427.5,706.6,430.5,706.6,434.2z"/>
	<path fill="#A8A8A7" d="M724.4,434c0,3.7-3,6.8-6.8,6.8c-3.7,0-6.8-3-6.8-6.8c0-3.7,3-6.8,6.8-6.8
		C721.4,427.3,724.4,430.3,724.4,434z"/>
	<circle fill="#A8A8A7" cx="735.5" cy="434" r="6.8"/>
	<path fill="#A8A8A7" d="M760.1,434.2c0,3.7-3,6.8-6.8,6.8c-3.7,0-6.8-3-6.8-6.8c0-3.7,3-6.8,6.8-6.8
		C757.1,427.5,760.1,430.5,760.1,434.2z"/>
	<path fill="#A8A8A7" d="M778,434.2c0,3.7-3,6.8-6.8,6.8c-3.7,0-6.8-3-6.8-6.8c0-3.7,3-6.7,6.8-6.7C775,427.5,778,430.5,778,434.2z"
		/>
	<path fill="#A8A8A7" d="M795.8,434.1c0,3.7-3,6.8-6.8,6.8c-3.7,0-6.8-3-6.8-6.8c0-3.7,3-6.7,6.8-6.7
		C792.8,427.3,795.8,430.4,795.8,434.1z"/>
	<path fill="#A8A8A7" d="M813.7,434.1c0,3.7-3,6.8-6.8,6.8c-3.7,0-6.8-3-6.8-6.8c0-3.7,3-6.8,6.8-6.8
		C810.6,427.3,813.7,430.4,813.7,434.1z"/>
	<path fill="#A8A8A7" d="M831.5,434.2c0,3.7-3,6.8-6.7,6.8c-3.7,0-6.8-3-6.8-6.8c0-3.7,3-6.8,6.8-6.8
		C828.5,427.4,831.5,430.5,831.5,434.2z"/>
	<path fill="#A8A8A7" d="M849.4,434.2c0,3.7-3,6.8-6.8,6.8c-3.7,0-6.8-3-6.8-6.8c0-3.7,3-6.8,6.8-6.8
		C846.3,427.4,849.4,430.5,849.4,434.2z"/>
	<path fill="#A8A8A7" d="M867.2,434c0,3.7-3,6.8-6.8,6.8c-3.7,0-6.8-3-6.8-6.8c0-3.7,3-6.8,6.8-6.8
		C864.2,427.2,867.2,430.3,867.2,434z"/>
	<path fill="#A8A8A7" d="M82,453.2c0,3.7-3,6.8-6.8,6.8c-3.7,0-6.8-3-6.8-6.8c0-3.7,3-6.7,6.8-6.7C79,446.4,82,449.4,82,453.2z"/>
	<path fill="#A8A8A7" d="M99.9,453.2c0,3.7-3,6.8-6.8,6.8c-3.7,0-6.8-3-6.8-6.8c0-3.7,3-6.8,6.8-6.8
		C96.8,446.4,99.9,449.5,99.9,453.2z"/>
	<path fill="#A8A8A7" d="M117.7,453.3c0,3.7-3,6.8-6.8,6.8c-3.7,0-6.8-3-6.8-6.8c0-3.7,3-6.8,6.8-6.8
		C114.7,446.5,117.7,449.6,117.7,453.3z"/>
	<path fill="#A8A8A7" d="M135.5,453.3c0,3.7-3,6.8-6.8,6.8c-3.7,0-6.8-3-6.8-6.8c0-3.7,3-6.8,6.8-6.8
		C132.5,446.5,135.5,449.6,135.5,453.3z"/>
	<path fill="#A8A8A7" d="M153.4,453.1c0,3.7-3,6.8-6.8,6.8c-3.7,0-6.8-3-6.8-6.8c0-3.7,3-6.8,6.8-6.8
		C150.4,446.4,153.4,449.4,153.4,453.1z"/>
	<path fill="#A8A8A7" d="M171.2,453.1c0,3.7-3,6.8-6.8,6.8c-3.7,0-6.7-3-6.7-6.8c0-3.7,3-6.7,6.7-6.7
		C168.2,446.4,171.2,449.4,171.2,453.1z"/>
	<path fill="#A8A8A7" d="M189.1,453.3c0,3.7-3,6.8-6.8,6.8c-3.7,0-6.8-3-6.8-6.8c0-3.7,3-6.8,6.8-6.8
		C186.1,446.6,189.1,449.6,189.1,453.3z"/>
	<path fill="#A8A8A7" d="M438.9,453.1c0,3.7-3,6.7-6.8,6.7c-3.7,0-6.7-3-6.7-6.7c0-3.7,3-6.8,6.7-6.8
		C435.9,446.4,438.9,449.4,438.9,453.1z"/>
	<path fill="#A8A8A7" d="M456.8,453.1c0,3.7-3,6.8-6.7,6.8c-3.7,0-6.8-3-6.8-6.8c0-3.7,3-6.8,6.8-6.8
		C453.7,446.4,456.8,449.4,456.8,453.1z"/>
	<path fill="#A8A8A7" d="M474.6,453.3c0,3.7-3,6.8-6.8,6.8c-3.7,0-6.8-3-6.8-6.8c0-3.7,3-6.7,6.8-6.7
		C471.6,446.6,474.6,449.6,474.6,453.3z"/>
	<path fill="#A8A8A7" d="M492.5,453.3c0,3.7-3,6.8-6.8,6.8c-3.7,0-6.8-3-6.8-6.8c0-3.7,3-6.8,6.8-6.8
		C489.4,446.6,492.5,449.6,492.5,453.3z"/>
	<path fill="#A8A8A7" d="M510.3,453.1c0,3.7-3,6.8-6.8,6.8c-3.7,0-6.8-3-6.8-6.8c0-3.7,3-6.7,6.8-6.7
		C507.3,446.4,510.3,449.4,510.3,453.1z"/>
	<path fill="#A8A8A7" d="M528.1,453.1c0,3.7-3,6.8-6.7,6.8c-3.7,0-6.7-3-6.7-6.8c0-3.7,3-6.7,6.7-6.7
		C525.1,446.4,528.1,449.4,528.1,453.1z"/>
	<path fill="#A8A8A7" d="M546,453.2c0,3.7-3,6.8-6.8,6.8c-3.7,0-6.8-3-6.8-6.8c0-3.7,3-6.7,6.8-6.7C543,446.4,546,449.5,546,453.2z"
		/>
	<path fill="#A8A8A7" d="M563.8,453.2c0,3.7-3,6.8-6.8,6.8c-3.7,0-6.8-3-6.8-6.8c0-3.7,3-6.7,6.8-6.7
		C560.8,446.5,563.8,449.5,563.8,453.2z"/>
	<path fill="#A8A8A7" d="M581.7,453.1c0,3.7-3,6.8-6.7,6.8c-3.7,0-6.8-3-6.8-6.8c0-3.7,3-6.8,6.8-6.8
		C578.7,446.3,581.7,449.4,581.7,453.1z"/>
	<path fill="#A8A8A7" d="M599.5,453.1c0,3.7-3,6.8-6.8,6.8c-3.7,0-6.7-3-6.7-6.8c0-3.7,3-6.8,6.7-6.8
		C596.5,446.3,599.5,449.3,599.5,453.1z"/>
	<path fill="#A8A8A7" d="M617.4,453.5c0,3.7-3,6.7-6.8,6.7c-3.7,0-6.8-3-6.8-6.7c0-3.7,3-6.8,6.8-6.8
		C614.4,446.8,617.4,449.8,617.4,453.5z"/>
	<path fill="#A8A8A7" d="M635.2,453.5c0,3.7-3,6.8-6.8,6.8c-3.7,0-6.8-3-6.8-6.8c0-3.7,3-6.8,6.8-6.8
		C632.2,446.8,635.2,449.8,635.2,453.5z"/>
	<path fill="#A8A8A7" d="M653.1,453.4c0,3.7-3,6.8-6.8,6.8c-3.7,0-6.8-3-6.8-6.8c0-3.7,3-6.8,6.8-6.8
		C650,446.6,653.1,449.7,653.1,453.4z"/>
	<path fill="#A8A8A7" d="M670.9,453.4c0,3.7-3,6.8-6.8,6.8c-3.7,0-6.8-3-6.8-6.8c0-3.7,3-6.7,6.8-6.7
		C667.9,446.6,670.9,449.7,670.9,453.4z"/>
	<path fill="#A8A8A7" d="M688.8,453.4c0,3.7-3,6.8-6.8,6.8c-3.7,0-6.8-3-6.8-6.8c0-3.7,3-6.8,6.8-6.8
		C685.7,446.7,688.8,449.7,688.8,453.4z"/>
	<path fill="#A8A8A7" d="M706.6,453.5c0,3.7-3,6.8-6.8,6.8c-3.7,0-6.7-3-6.7-6.8c0-3.7,3-6.7,6.7-6.7
		C703.6,446.7,706.6,449.7,706.6,453.5z"/>
	<path fill="#A8A8A7" d="M724.4,453.3c0,3.7-3,6.8-6.8,6.8c-3.7,0-6.8-3-6.8-6.8c0-3.7,3-6.8,6.8-6.8
		C721.4,446.5,724.4,449.5,724.4,453.3z"/>
	<path fill="#A8A8A7" d="M742.3,453.3c0,3.7-3,6.8-6.8,6.8c-3.7,0-6.8-3-6.8-6.8c0-3.7,3-6.7,6.8-6.7
		C739.3,446.5,742.3,449.6,742.3,453.3z"/>
	<path fill="#A8A8A7" d="M760.1,453.5c0,3.7-3,6.8-6.8,6.8c-3.7,0-6.8-3-6.8-6.8c0-3.7,3-6.8,6.8-6.8
		C757.1,446.7,760.1,449.7,760.1,453.5z"/>
	<path fill="#A8A8A7" d="M778,453.5c0,3.7-3,6.8-6.8,6.8c-3.7,0-6.8-3-6.8-6.8c0-3.7,3-6.8,6.8-6.8C775,446.7,778,449.8,778,453.5z"
		/>
	<path fill="#A8A8A7" d="M795.8,453.3c0,3.7-3,6.8-6.8,6.8c-3.7,0-6.8-3-6.8-6.8c0-3.7,3-6.8,6.8-6.8
		C792.8,446.6,795.8,449.6,795.8,453.3z"/>
	<path fill="#A8A8A7" d="M813.7,453.3c0,3.7-3,6.8-6.8,6.8c-3.7,0-6.8-3-6.8-6.8c0-3.7,3-6.8,6.8-6.8
		C810.6,446.6,813.7,449.6,813.7,453.3z"/>
	<path fill="#A8A8A7" d="M831.5,453.4c0,3.7-3,6.7-6.7,6.7c-3.7,0-6.8-3-6.8-6.7c0-3.7,3-6.7,6.8-6.7
		C828.5,446.7,831.5,449.7,831.5,453.4z"/>
	<path fill="#A8A8A7" d="M849.4,453.4c0,3.7-3,6.8-6.8,6.8c-3.7,0-6.8-3-6.8-6.8c0-3.7,3-6.8,6.8-6.8
		C846.3,446.7,849.4,449.7,849.4,453.4z"/>
	<path fill="#A8A8A7" d="M867.2,453.2c0,3.7-3,6.8-6.8,6.8c-3.7,0-6.8-3-6.8-6.8c0-3.7,3-6.8,6.8-6.8
		C864.2,446.5,867.2,449.5,867.2,453.2z"/>
	<path fill="#A8A8A7" d="M885.1,453.2c0,3.7-3,6.7-6.8,6.7c-3.7,0-6.8-3-6.8-6.7c0-3.7,3-6.8,6.8-6.8
		C882,446.5,885.1,449.5,885.1,453.2z"/>
	<path fill="#A8A8A7" d="M82,472.4c0,3.7-3,6.8-6.8,6.8c-3.7,0-6.8-3-6.8-6.8c0-3.7,3-6.8,6.8-6.8C79,465.7,82,468.7,82,472.4z"/>
	<path fill="#A8A8A7" d="M99.9,472.4c0,3.7-3,6.8-6.8,6.8c-3.7,0-6.8-3-6.8-6.8c0-3.7,3-6.7,6.8-6.7
		C96.8,465.7,99.9,468.7,99.9,472.4z"/>
	<path fill="#A8A8A7" d="M117.7,472.5c0,3.7-3,6.8-6.8,6.8c-3.7,0-6.8-3-6.8-6.8c0-3.7,3-6.8,6.8-6.8
		C114.7,465.8,117.7,468.8,117.7,472.5z"/>
	<path fill="#A8A8A7" d="M171.2,472.4c0,3.7-3,6.7-6.7,6.7c-3.7,0-6.8-3-6.8-6.7c0-3.7,3-6.8,6.8-6.8
		C168.2,465.6,171.2,468.6,171.2,472.4z"/>
	<path fill="#A8A8A7" d="M421.1,472.5c0,3.7-3,6.8-6.8,6.8c-3.7,0-6.8-3-6.8-6.8c0-3.7,3-6.8,6.8-6.8
		C418,465.7,421.1,468.8,421.1,472.5z"/>
	<path fill="#A8A8A7" d="M438.9,472.3c0,3.7-3,6.8-6.8,6.8c-3.7,0-6.8-3-6.8-6.8c0-3.7,3-6.8,6.8-6.8
		C435.9,465.6,438.9,468.6,438.9,472.3z"/>
	<path fill="#A8A8A7" d="M456.8,472.3c0,3.7-3,6.8-6.7,6.8c-3.7,0-6.8-3-6.8-6.8c0-3.7,3-6.7,6.8-6.7
		C453.7,465.6,456.8,468.6,456.8,472.3z"/>
	<path fill="#A8A8A7" d="M474.6,472.5c0,3.7-3,6.8-6.8,6.8c-3.7,0-6.8-3-6.8-6.8c0-3.7,3-6.8,6.8-6.8
		C471.6,465.8,474.6,468.8,474.6,472.5z"/>
	<circle fill="#A8A8A7" cx="485.7" cy="472.6" r="6.8"/>
	<path fill="#A8A8A7" d="M510.3,472.4c0,3.7-3,6.8-6.8,6.8c-3.7,0-6.7-3-6.7-6.8c0-3.7,3-6.8,6.7-6.8
		C507.3,465.6,510.3,468.6,510.3,472.4z"/>
	<path fill="#A8A8A7" d="M528.1,472.4c0,3.7-3,6.8-6.8,6.8c-3.7,0-6.8-3-6.8-6.8c0-3.7,3-6.8,6.8-6.8
		C525.1,465.6,528.1,468.6,528.1,472.4z"/>
	<path fill="#A8A8A7" d="M546,472.4c0,3.7-3,6.8-6.8,6.8c-3.7,0-6.8-3-6.8-6.8c0-3.7,3-6.8,6.8-6.8C543,465.7,546,468.7,546,472.4z"
		/>
	<path fill="#A8A8A7" d="M563.8,472.4c0,3.7-3,6.8-6.8,6.8c-3.7,0-6.7-3-6.7-6.8c0-3.7,3-6.8,6.7-6.8
		C560.8,465.7,563.8,468.7,563.8,472.4z"/>
	<path fill="#A8A8A7" d="M581.7,472.3c0,3.7-3,6.8-6.8,6.8c-3.7,0-6.8-3-6.8-6.8c0-3.7,3-6.7,6.8-6.7
		C578.7,465.6,581.7,468.6,581.7,472.3z"/>
	<path fill="#A8A8A7" d="M599.5,472.3c0,3.7-3,6.8-6.7,6.8c-3.7,0-6.8-3-6.8-6.8c0-3.7,3-6.8,6.8-6.8
		C596.5,465.6,599.5,468.6,599.5,472.3z"/>
	<path fill="#A8A8A7" d="M617.4,472.7c0,3.7-3,6.8-6.8,6.8c-3.7,0-6.7-3-6.7-6.8c0-3.7,3-6.7,6.7-6.7
		C614.4,466,617.4,469,617.4,472.7z"/>
	<path fill="#A8A8A7" d="M635.2,472.7c0,3.7-3,6.8-6.8,6.8c-3.7,0-6.8-3-6.8-6.8c0-3.7,3-6.7,6.8-6.7
		C632.2,466,635.2,469,635.2,472.7z"/>
	<path fill="#A8A8A7" d="M653.1,472.6c0,3.7-3,6.8-6.8,6.8c-3.7,0-6.8-3-6.8-6.8c0-3.7,3-6.8,6.8-6.8
		C650,465.9,653.1,468.9,653.1,472.6z"/>
	<path fill="#A8A8A7" d="M688.8,472.7c0,3.7-3,6.8-6.8,6.8c-3.7,0-6.8-3-6.8-6.8c0-3.7,3-6.8,6.8-6.8
		C685.7,465.9,688.8,469,688.8,472.7z"/>
	<path fill="#A8A8A7" d="M706.6,472.7c0,3.7-3,6.8-6.8,6.8c-3.7,0-6.7-3-6.7-6.8c0-3.7,3-6.7,6.7-6.7
		C703.6,465.9,706.6,469,706.6,472.7z"/>
	<path fill="#A8A8A7" d="M724.4,472.5c0,3.7-3,6.8-6.8,6.8c-3.7,0-6.8-3-6.8-6.8c0-3.7,3-6.8,6.8-6.8
		C721.4,465.7,724.4,468.8,724.4,472.5z"/>
	<path fill="#A8A8A7" d="M742.3,472.5c0,3.7-3,6.8-6.8,6.8c-3.7,0-6.8-3-6.8-6.8c0-3.7,3-6.7,6.8-6.7
		C739.3,465.8,742.3,468.8,742.3,472.5z"/>
	<path fill="#A8A8A7" d="M760.1,472.7c0,3.7-3,6.8-6.8,6.8c-3.7,0-6.8-3-6.8-6.8c0-3.7,3-6.7,6.8-6.7
		C757.1,466,760.1,469,760.1,472.7z"/>
	<path fill="#A8A8A7" d="M778,472.7c0,3.7-3,6.8-6.8,6.8c-3.7,0-6.7-3-6.7-6.8c0-3.7,3-6.8,6.7-6.8C775,466,778,469,778,472.7z"/>
	<path fill="#A8A8A7" d="M795.8,472.6c0,3.7-3,6.8-6.8,6.8c-3.7,0-6.8-3-6.8-6.8c0-3.7,3-6.7,6.8-6.7
		C792.8,465.8,795.8,468.8,795.8,472.6z"/>
	<path fill="#A8A8A7" d="M813.7,472.6c0,3.7-3,6.8-6.8,6.8c-3.7,0-6.8-3-6.8-6.8c0-3.7,3-6.7,6.8-6.7
		C810.6,465.8,813.7,468.8,813.7,472.6z"/>
	<path fill="#A8A8A7" d="M831.5,472.6c0,3.7-3,6.8-6.7,6.8c-3.7,0-6.8-3-6.8-6.8c0-3.7,3-6.7,6.8-6.7
		C828.5,465.9,831.5,468.9,831.5,472.6z"/>
	<path fill="#A8A8A7" d="M849.4,472.7c0,3.7-3,6.8-6.8,6.8c-3.7,0-6.8-3-6.8-6.8c0-3.7,3-6.7,6.8-6.7
		C846.3,465.9,849.4,468.9,849.4,472.7z"/>
	<path fill="#A8A8A7" d="M867.2,472.4c0,3.7-3,6.8-6.8,6.8c-3.7,0-6.7-3-6.7-6.8c0-3.7,3-6.7,6.7-6.7
		C864.2,465.7,867.2,468.7,867.2,472.4z"/>
	<path fill="#A8A8A7" d="M885.1,472.5c0,3.7-3,6.8-6.8,6.8c-3.7,0-6.7-3-6.7-6.8c0-3.7,3-6.8,6.7-6.8
		C882,465.7,885.1,468.7,885.1,472.5z"/>
	<path fill="#A8A8A7" d="M99.9,491.6c0,3.7-3,6.8-6.8,6.8c-3.7,0-6.8-3-6.8-6.8c0-3.7,3-6.8,6.8-6.8
		C96.8,484.9,99.9,487.9,99.9,491.6z"/>
	<path fill="#A8A8A7" d="M117.7,491.7c0,3.7-3,6.8-6.8,6.8c-3.7,0-6.8-3-6.8-6.8c0-3.7,3-6.7,6.8-6.7
		C114.7,485,117.7,488,117.7,491.7z"/>
	<path fill="#A8A8A7" d="M421.1,491.7c0,3.7-3,6.8-6.8,6.8c-3.7,0-6.8-3-6.8-6.8c0-3.7,3-6.8,6.8-6.8C418,485,421.1,488,421.1,491.7
		z"/>
	<path fill="#A8A8A7" d="M438.9,491.6c0,3.7-3,6.8-6.8,6.8c-3.7,0-6.7-3-6.7-6.8c0-3.7,3-6.8,6.7-6.8
		C435.9,484.8,438.9,487.8,438.9,491.6z"/>
	<path fill="#A8A8A7" d="M456.8,491.6c0,3.7-3,6.8-6.7,6.8c-3.7,0-6.8-3-6.8-6.8c0-3.7,3-6.8,6.8-6.8
		C453.7,484.8,456.8,487.8,456.8,491.6z"/>
	<path fill="#A8A8A7" d="M474.6,491.8c0,3.7-3,6.8-6.8,6.8c-3.7,0-6.8-3-6.8-6.8c0-3.7,3-6.7,6.8-6.7
		C471.6,485,474.6,488,474.6,491.8z"/>
	<path fill="#A8A8A7" d="M492.5,491.8c0,3.7-3,6.8-6.8,6.8c-3.7,0-6.8-3-6.8-6.8c0-3.7,3-6.7,6.8-6.7
		C489.4,485,492.5,488.1,492.5,491.8z"/>
	<path fill="#A8A8A7" d="M510.3,491.6c0,3.7-3,6.8-6.8,6.8c-3.7,0-6.8-3-6.8-6.8c0-3.7,3-6.8,6.8-6.8
		C507.3,484.8,510.3,487.9,510.3,491.6z"/>
	<path fill="#A8A8A7" d="M528.1,491.6c0,3.7-3,6.8-6.7,6.8c-3.7,0-6.7-3-6.7-6.8c0-3.7,3-6.8,6.7-6.8
		C525.1,484.8,528.1,487.9,528.1,491.6z"/>
	<path fill="#A8A8A7" d="M546,491.7c0,3.7-3,6.8-6.8,6.8c-3.7,0-6.8-3-6.8-6.8c0-3.7,3-6.7,6.8-6.7C543,484.9,546,487.9,546,491.7z"
		/>
	<path fill="#A8A8A7" d="M563.8,491.7c0,3.7-3,6.8-6.8,6.8c-3.7,0-6.8-3-6.8-6.8c0-3.7,3-6.8,6.8-6.8
		C560.8,484.9,563.8,487.9,563.8,491.7z"/>
	<path fill="#A8A8A7" d="M581.7,491.5c0,3.7-3,6.8-6.7,6.8c-3.7,0-6.8-3-6.8-6.8c0-3.7,3-6.8,6.8-6.8
		C578.7,484.8,581.7,487.8,581.7,491.5z"/>
	<path fill="#A8A8A7" d="M599.5,491.5c0,3.7-3,6.7-6.8,6.7c-3.7,0-6.7-3-6.7-6.7c0-3.7,3-6.8,6.7-6.8
		C596.5,484.8,599.5,487.8,599.5,491.5z"/>
	<path fill="#A8A8A7" d="M617.4,492c0,3.7-3,6.8-6.8,6.8c-3.7,0-6.8-3-6.8-6.8c0-3.7,3-6.7,6.8-6.7
		C614.4,485.2,617.4,488.2,617.4,492z"/>
	<path fill="#A8A8A7" d="M635.2,492c0,3.7-3,6.8-6.8,6.8c-3.7,0-6.8-3-6.8-6.8c0-3.7,3-6.8,6.8-6.8
		C632.2,485.2,635.2,488.2,635.2,492z"/>
	<ellipse fill="#A8A8A7" cx="646.3" cy="491.8" rx="6.8" ry="6.7"/>
	<path fill="#A8A8A7" d="M670.9,491.8c0,3.7-3,6.8-6.8,6.8c-3.7,0-6.8-3-6.8-6.8c0-3.7,3-6.8,6.8-6.8
		C667.9,485.1,670.9,488.1,670.9,491.8z"/>
	<path fill="#A8A8A7" d="M742.3,491.7c0,3.7-3,6.8-6.8,6.8c-3.7,0-6.8-3-6.8-6.8c0-3.7,3-6.7,6.8-6.7
		C739.3,485,742.3,488,742.3,491.7z"/>
	<path fill="#A8A8A7" d="M760.1,491.9c0,3.7-3,6.8-6.8,6.8c-3.7,0-6.8-3-6.8-6.8c0-3.7,3-6.8,6.8-6.8
		C757.1,485.2,760.1,488.2,760.1,491.9z"/>
	<path fill="#A8A8A7" d="M778,491.9c0,3.7-3,6.8-6.8,6.8c-3.7,0-6.8-3-6.8-6.8c0-3.7,3-6.8,6.8-6.8C775,485.2,778,488.2,778,491.9z"
		/>
	<path fill="#A8A8A7" d="M795.8,491.8c0,3.7-3,6.8-6.8,6.8c-3.7,0-6.8-3-6.8-6.8c0-3.7,3-6.8,6.8-6.8
		C792.8,485,795.8,488.1,795.8,491.8z"/>
	<path fill="#A8A8A7" d="M813.7,491.8c0,3.7-3,6.8-6.8,6.8c-3.7,0-6.8-3-6.8-6.8c0-3.7,3-6.7,6.8-6.7
		C810.6,485,813.7,488.1,813.7,491.8z"/>
	<path fill="#A8A8A7" d="M831.5,491.9c0,3.7-3,6.8-6.7,6.8c-3.7,0-6.8-3-6.8-6.8c0-3.7,3-6.8,6.8-6.8
		C828.5,485.1,831.5,488.2,831.5,491.9z"/>
	<path fill="#A8A8A7" d="M849.4,491.9c0,3.7-3,6.8-6.8,6.8c-3.7,0-6.8-3-6.8-6.8c0-3.7,3-6.7,6.8-6.7
		C846.3,485.1,849.4,488.2,849.4,491.9z"/>
	<path fill="#A8A8A7" d="M867.2,491.7c0,3.7-3,6.8-6.8,6.8c-3.7,0-6.8-3-6.8-6.8c0-3.7,3-6.8,6.8-6.8
		C864.2,484.9,867.2,487.9,867.2,491.7z"/>
	<path fill="#A8A8A7" d="M99.9,510.9c0,3.7-3,6.8-6.8,6.8c-3.7,0-6.8-3-6.8-6.8c0-3.7,3-6.8,6.8-6.8
		C96.8,504.1,99.9,507.2,99.9,510.9z"/>
	<path fill="#A8A8A7" d="M117.7,511c0,3.7-3,6.8-6.8,6.8c-3.7,0-6.8-3-6.8-6.8c0-3.7,3-6.8,6.8-6.8
		C114.7,504.2,117.7,507.3,117.7,511z"/>
	<path fill="#A8A8A7" d="M135.5,511c0,3.7-3,6.8-6.8,6.8c-3.7,0-6.8-3-6.8-6.8c0-3.7,3-6.8,6.8-6.8
		C132.5,504.2,135.5,507.3,135.5,511z"/>
	<path fill="#A8A8A7" d="M421.1,511c0,3.7-3,6.8-6.8,6.8c-3.7,0-6.8-3-6.8-6.8c0-3.7,3-6.8,6.8-6.8C418,504.2,421.1,507.2,421.1,511
		z"/>
	<path fill="#A8A8A7" d="M438.9,510.8c0,3.7-3,6.8-6.8,6.8c-3.7,0-6.8-3-6.8-6.8c0-3.7,3-6.8,6.8-6.8
		C435.9,504,438.9,507.1,438.9,510.8z"/>
	<path fill="#A8A8A7" d="M456.8,510.8c0,3.7-3,6.8-6.7,6.8c-3.7,0-6.8-3-6.8-6.8c0-3.7,3-6.8,6.8-6.8
		C453.7,504.1,456.8,507.1,456.8,510.8z"/>
	<path fill="#A8A8A7" d="M474.6,511c0,3.7-3,6.8-6.8,6.8c-3.7,0-6.8-3-6.8-6.8s3-6.8,6.8-6.8C471.6,504.3,474.6,507.3,474.6,511z"/>
	<path fill="#A8A8A7" d="M492.5,511c0,3.7-3,6.8-6.8,6.8c-3.7,0-6.8-3-6.8-6.8c0-3.7,3-6.8,6.8-6.8
		C489.4,504.3,492.5,507.3,492.5,511z"/>
	<path fill="#A8A8A7" d="M510.3,510.8c0,3.7-3,6.8-6.8,6.8c-3.7,0-6.7-3-6.7-6.8c0-3.7,3-6.8,6.7-6.8
		C507.3,504.1,510.3,507.1,510.3,510.8z"/>
	<path fill="#A8A8A7" d="M528.1,510.8c0,3.7-3,6.8-6.8,6.8c-3.7,0-6.8-3-6.8-6.8c0-3.7,3-6.8,6.8-6.8
		C525.1,504.1,528.1,507.1,528.1,510.8z"/>
	<path fill="#A8A8A7" d="M546,510.9c0,3.7-3,6.8-6.8,6.8c-3.7,0-6.8-3-6.8-6.8c0-3.7,3-6.8,6.8-6.8C543,504.1,546,507.2,546,510.9z"
		/>
	<path fill="#A8A8A7" d="M563.8,510.9c0,3.7-3,6.8-6.8,6.8c-3.7,0-6.7-3-6.7-6.8c0-3.7,3-6.8,6.7-6.8
		C560.8,504.2,563.8,507.2,563.8,510.9z"/>
	<path fill="#A8A8A7" d="M581.7,510.8c0,3.7-3,6.8-6.8,6.8c-3.7,0-6.8-3-6.8-6.8c0-3.7,3-6.8,6.8-6.8
		C578.7,504,581.7,507.1,581.7,510.8z"/>
	<path fill="#A8A8A7" d="M599.5,510.8c0,3.7-3,6.8-6.7,6.8c-3.7,0-6.8-3-6.8-6.8c0-3.7,3-6.8,6.8-6.8
		C596.5,504,599.5,507,599.5,510.8z"/>
	<path fill="#A8A8A7" d="M617.4,511.2c0,3.7-3,6.8-6.8,6.8c-3.7,0-6.7-3-6.7-6.8c0-3.7,3-6.8,6.7-6.8
		C614.4,504.4,617.4,507.5,617.4,511.2z"/>
	<path fill="#A8A8A7" d="M635.2,511.2c0,3.7-3,6.8-6.8,6.8c-3.7,0-6.8-3-6.8-6.8c0-3.7,3-6.8,6.8-6.8
		C632.2,504.5,635.2,507.5,635.2,511.2z"/>
	<path fill="#A8A8A7" d="M653.1,511.1c0,3.7-3,6.8-6.8,6.8c-3.7,0-6.8-3-6.8-6.8c0-3.7,3-6.8,6.8-6.8
		C650,504.3,653.1,507.4,653.1,511.1z"/>
	<path fill="#A8A8A7" d="M670.9,511.1c0,3.7-3,6.8-6.8,6.8c-3.7,0-6.7-3-6.7-6.8c0-3.7,3-6.8,6.7-6.8
		C667.9,504.3,670.9,507.4,670.9,511.1z"/>
	<path fill="#A8A8A7" d="M688.8,511.1c0,3.7-3,6.8-6.8,6.8c-3.7,0-6.8-3-6.8-6.8c0-3.7,3-6.8,6.8-6.8
		C685.7,504.4,688.8,507.4,688.8,511.1z"/>
	<path fill="#A8A8A7" d="M742.3,511c0,3.7-3,6.8-6.8,6.8c-3.7,0-6.8-3-6.8-6.8c0-3.7,3-6.7,6.8-6.7
		C739.3,504.2,742.3,507.2,742.3,511z"/>
	<path fill="#A8A8A7" d="M760.1,511.2c0,3.7-3,6.8-6.8,6.8c-3.7,0-6.8-3-6.8-6.8c0-3.7,3-6.8,6.8-6.8
		C757.1,504.4,760.1,507.4,760.1,511.2z"/>
	<path fill="#A8A8A7" d="M778,511.2c0,3.7-3,6.8-6.8,6.8c-3.7,0-6.7-3-6.7-6.8c0-3.7,3-6.8,6.7-6.8C775,504.4,778,507.5,778,511.2z"
		/>
	<path fill="#A8A8A7" d="M831.5,511.1c0,3.7-3,6.8-6.7,6.8c-3.7,0-6.8-3-6.8-6.8c0-3.7,3-6.8,6.8-6.8
		C828.5,504.4,831.5,507.4,831.5,511.1z"/>
	<path fill="#A8A8A7" d="M849.4,511.1c0,3.7-3,6.8-6.8,6.8c-3.7,0-6.8-3-6.8-6.8c0-3.7,3-6.8,6.8-6.8
		C846.3,504.4,849.4,507.4,849.4,511.1z"/>
	<path fill="#A8A8A7" d="M867.2,510.9c0,3.7-3,6.8-6.8,6.8c-3.7,0-6.7-3-6.7-6.8c0-3.7,3-6.8,6.7-6.8
		C864.2,504.2,867.2,507.2,867.2,510.9z"/>
	<path fill="#A8A8A7" d="M135.5,530.2c0,3.7-3,6.8-6.8,6.8c-3.7,0-6.8-3-6.8-6.8c0-3.7,3-6.7,6.8-6.7
		C132.5,523.5,135.5,526.5,135.5,530.2z"/>
	<path fill="#A8A8A7" d="M153.4,530c0,3.7-3,6.8-6.8,6.8c-3.7,0-6.8-3-6.8-6.8c0-3.7,3-6.7,6.8-6.7
		C150.4,523.3,153.4,526.3,153.4,530z"/>
	<path fill="#A8A8A7" d="M403.2,530.2c0,3.7-3,6.8-6.8,6.8c-3.7,0-6.8-3-6.8-6.8c0-3.7,3-6.7,6.8-6.7
		C400.2,523.4,403.2,526.5,403.2,530.2z"/>
	<path fill="#A8A8A7" d="M421.1,530.2c0,3.7-3,6.8-6.8,6.8c-3.7,0-6.8-3-6.8-6.8c0-3.7,3-6.7,6.8-6.7
		C418,523.4,421.1,526.5,421.1,530.2z"/>
	<path fill="#A8A8A7" d="M438.9,530c0,3.7-3,6.8-6.8,6.8c-3.7,0-6.8-3-6.8-6.8c0-3.7,3-6.7,6.8-6.7
		C435.9,523.3,438.9,526.3,438.9,530z"/>
	<path fill="#A8A8A7" d="M456.8,530c0,3.7-3,6.8-6.7,6.8c-3.7,0-6.8-3-6.8-6.8c0-3.7,3-6.8,6.8-6.8
		C453.7,523.3,456.8,526.3,456.8,530z"/>
	<path fill="#A8A8A7" d="M474.6,530.2c0,3.7-3,6.8-6.8,6.8c-3.7,0-6.8-3-6.8-6.8c0-3.7,3-6.8,6.8-6.8
		C471.6,523.5,474.6,526.5,474.6,530.2z"/>
	<path fill="#A8A8A7" d="M492.5,530.3c0,3.7-3,6.7-6.8,6.7c-3.7,0-6.8-3-6.8-6.7c0-3.7,3-6.8,6.8-6.8
		C489.4,523.5,492.5,526.5,492.5,530.3z"/>
	<path fill="#A8A8A7" d="M510.3,530.1c0,3.7-3,6.8-6.8,6.8c-3.7,0-6.7-3-6.7-6.8c0-3.7,3-6.8,6.7-6.8
		C507.3,523.3,510.3,526.3,510.3,530.1z"/>
	<path fill="#A8A8A7" d="M528.1,530.1c0,3.7-3,6.8-6.8,6.8c-3.7,0-6.8-3-6.8-6.8c0-3.7,3-6.8,6.8-6.8
		C525.1,523.3,528.1,526.3,528.1,530.1z"/>
	<path fill="#A8A8A7" d="M546,530.1c0,3.7-3,6.8-6.8,6.8c-3.7,0-6.8-3-6.8-6.8c0-3.7,3-6.7,6.8-6.7C543,523.4,546,526.4,546,530.1z"
		/>
	<path fill="#A8A8A7" d="M563.8,530.1c0,3.7-3,6.8-6.8,6.8c-3.7,0-6.7-3-6.7-6.8c0-3.7,3-6.8,6.7-6.8
		C560.8,523.4,563.8,526.4,563.8,530.1z"/>
	<path fill="#A8A8A7" d="M581.7,530c0,3.7-3,6.8-6.8,6.8c-3.7,0-6.8-3-6.8-6.8c0-3.7,3-6.7,6.8-6.7
		C578.7,523.3,581.7,526.3,581.7,530z"/>
	<path fill="#A8A8A7" d="M599.5,530c0,3.7-3,6.8-6.7,6.8c-3.7,0-6.8-3-6.8-6.8s3-6.8,6.8-6.8C596.5,523.3,599.5,526.3,599.5,530z"/>
	<path fill="#A8A8A7" d="M617.4,530.4c0,3.7-3,6.8-6.8,6.8c-3.7,0-6.7-3-6.7-6.8c0-3.7,3-6.8,6.7-6.8
		C614.4,523.7,617.4,526.7,617.4,530.4z"/>
	<path fill="#A8A8A7" d="M635.2,530.4c0,3.7-3,6.7-6.8,6.7c-3.7,0-6.8-3-6.8-6.7c0-3.7,3-6.7,6.8-6.7
		C632.2,523.7,635.2,526.7,635.2,530.4z"/>
	<path fill="#A8A8A7" d="M653.1,530.3c0,3.7-3,6.8-6.8,6.8c-3.7,0-6.8-3-6.8-6.8c0-3.7,3-6.8,6.8-6.8
		C650,523.6,653.1,526.6,653.1,530.3z"/>
	<path fill="#A8A8A7" d="M670.9,530.3c0,3.7-3,6.8-6.8,6.8c-3.7,0-6.7-3-6.7-6.8c0-3.7,3-6.8,6.7-6.8
		C667.9,523.6,670.9,526.6,670.9,530.3z"/>
	<path fill="#A8A8A7" d="M760.1,530.4c0,3.7-3,6.8-6.8,6.8c-3.7,0-6.8-3-6.8-6.8c0-3.7,3-6.8,6.8-6.8
		C757.1,523.7,760.1,526.7,760.1,530.4z"/>
	<path fill="#A8A8A7" d="M778,530.4c0,3.7-3,6.7-6.8,6.7c-3.7,0-6.7-3-6.7-6.7c0-3.7,3-6.8,6.7-6.8C775,523.7,778,526.7,778,530.4z"
		/>
	<path fill="#A8A8A7" d="M849.4,530.4c0,3.7-3,6.8-6.8,6.8c-3.7,0-6.8-3-6.8-6.8c0-3.7,3-6.8,6.8-6.8
		C846.3,523.6,849.4,526.6,849.4,530.4z"/>
	<path fill="#A8A8A7" d="M867.2,530.1c0,3.7-3,6.8-6.8,6.8c-3.7,0-6.7-3-6.7-6.8c0-3.7,3-6.7,6.7-6.7
		C864.2,523.4,867.2,526.4,867.2,530.1z"/>
	<path fill="#A8A8A7" d="M153.4,549.3c0,3.7-3,6.8-6.8,6.8c-3.7,0-6.8-3-6.8-6.8c0-3.7,3-6.8,6.8-6.8
		C150.4,542.5,153.4,545.6,153.4,549.3z"/>
	<path fill="#A8A8A7" d="M189.1,549.5c0,3.7-3,6.7-6.8,6.7c-3.7,0-6.8-3-6.8-6.7c0-3.7,3-6.8,6.8-6.8
		C186.1,542.8,189.1,545.8,189.1,549.5z"/>
	<path fill="#A8A8A7" d="M206.9,549.5c0,3.7-3,6.8-6.8,6.8c-3.7,0-6.8-3-6.8-6.8c0-3.7,3-6.8,6.8-6.8
		C203.9,542.8,206.9,545.8,206.9,549.5z"/>
	<path fill="#A8A8A7" d="M421.1,549.4c0,3.7-3,6.8-6.8,6.8c-3.7,0-6.8-3-6.8-6.8c0-3.7,3-6.8,6.8-6.8
		C418,542.7,421.1,545.7,421.1,549.4z"/>
	<path fill="#A8A8A7" d="M438.9,549.3c0,3.7-3,6.8-6.8,6.8c-3.7,0-6.8-3-6.8-6.8c0-3.7,3-6.7,6.8-6.7
		C435.9,542.5,438.9,545.5,438.9,549.3z"/>
	<path fill="#A8A8A7" d="M456.8,549.3c0,3.7-3,6.8-6.7,6.8c-3.7,0-6.8-3-6.8-6.8c0-3.7,3-6.7,6.8-6.7
		C453.7,542.5,456.8,545.6,456.8,549.3z"/>
	<path fill="#A8A8A7" d="M474.6,549.5c0,3.7-3,6.7-6.8,6.7c-3.7,0-6.8-3-6.8-6.7c0-3.7,3-6.8,6.8-6.8
		C471.6,542.7,474.6,545.8,474.6,549.5z"/>
	<path fill="#A8A8A7" d="M492.5,549.5c0,3.7-3,6.8-6.8,6.8c-3.7,0-6.8-3-6.8-6.8c0-3.7,3-6.8,6.8-6.8
		C489.4,542.7,492.5,545.8,492.5,549.5z"/>
	<path fill="#A8A8A7" d="M510.3,549.3c0,3.7-3,6.8-6.8,6.8c-3.7,0-6.7-3-6.7-6.8c0-3.7,3-6.8,6.7-6.8
		C507.3,542.5,510.3,545.6,510.3,549.3z"/>
	<path fill="#A8A8A7" d="M528.1,549.3c0,3.7-3,6.8-6.8,6.8c-3.7,0-6.8-3-6.8-6.8c0-3.7,3-6.7,6.8-6.7
		C525.1,542.6,528.1,545.6,528.1,549.3z"/>
	<path fill="#A8A8A7" d="M546,549.4c0,3.7-3,6.8-6.8,6.8c-3.7,0-6.8-3-6.8-6.8c0-3.7,3-6.7,6.8-6.7C543,542.6,546,545.6,546,549.4z"
		/>
	<path fill="#A8A8A7" d="M563.8,549.4c0,3.7-3,6.8-6.8,6.8c-3.7,0-6.7-3-6.7-6.8c0-3.7,3-6.7,6.7-6.7
		C560.8,542.6,563.8,545.6,563.8,549.4z"/>
	<path fill="#A8A8A7" d="M581.7,549.2c0,3.7-3,6.8-6.8,6.8c-3.7,0-6.8-3-6.8-6.8c0-3.7,3-6.8,6.8-6.8
		C578.7,542.5,581.7,545.5,581.7,549.2z"/>
	<path fill="#A8A8A7" d="M599.5,549.2c0,3.7-3,6.7-6.7,6.7c-3.7,0-6.8-3-6.8-6.7c0-3.7,3-6.8,6.8-6.8
		C596.5,542.5,599.5,545.5,599.5,549.2z"/>
	<path fill="#A8A8A7" d="M617.4,549.7c0,3.7-3,6.8-6.8,6.8c-3.7,0-6.7-3-6.7-6.8c0-3.7,3-6.8,6.7-6.8
		C614.4,542.9,617.4,545.9,617.4,549.7z"/>
	<path fill="#A8A8A7" d="M635.2,549.7c0,3.7-3,6.8-6.8,6.8c-3.7,0-6.8-3-6.8-6.8c0-3.7,3-6.8,6.8-6.8
		C632.2,542.9,635.2,545.9,635.2,549.7z"/>
	<path fill="#A8A8A7" d="M653.1,549.5c0,3.7-3,6.8-6.8,6.8c-3.7,0-6.8-3-6.8-6.8c0-3.7,3-6.7,6.8-6.7
		C650,542.8,653.1,545.8,653.1,549.5z"/>
	<path fill="#A8A8A7" d="M760.1,549.6c0,3.7-3,6.8-6.8,6.8c-3.7,0-6.8-3-6.8-6.8c0-3.7,3-6.8,6.8-6.8
		C757.1,542.9,760.1,545.9,760.1,549.6z"/>
	<path fill="#A8A8A7" d="M778,549.6c0,3.7-3,6.8-6.8,6.8c-3.7,0-6.7-3-6.7-6.8c0-3.7,3-6.8,6.7-6.8C775,542.9,778,545.9,778,549.6z"
		/>
	<path fill="#A8A8A7" d="M849.4,549.6c0,3.7-3,6.8-6.8,6.8c-3.7,0-6.8-3-6.8-6.8c0-3.7,3-6.8,6.8-6.8
		C846.3,542.8,849.4,545.9,849.4,549.6z"/>
	<path fill="#A8A8A7" d="M867.2,549.4c0,3.7-3,6.8-6.8,6.8c-3.7,0-6.7-3-6.7-6.8c0-3.7,3-6.8,6.7-6.8
		C864.2,542.6,867.2,545.7,867.2,549.4z"/>
</g>
</svg>
